<?xml version="1.0" encoding="utf-8"?>
<!-- Generator: Adobe Illustrator 25.4.1, SVG Export Plug-In . SVG Version: 6.00 Build 0)  -->
<svg version="1.1" id="Layer_1" xmlns="http://www.w3.org/2000/svg" xmlns:xlink="http://www.w3.org/1999/xlink" x="0px" y="0px"
	 viewBox="0 0 500 500" style="enable-background:new 0 0 500 500;" xml:space="preserve">
<style type="text/css">
	.st0{fill:#4291CE;}
	.st1{fill:#0B4258;}
	.st2{fill:#8E8E8E;}
	.st3{display:none;}
	.st4{display:inline;}
	.st5{fill:#00ABA8;}
	.st6{display:inline;fill:#00ABA8;}
</style>
<g>
	<path class="st0" d="M25.2,276l-0.6-5c6.6,1.3,13.3,0.2,12.3-8.2v-36.3h6.4v36.3C44.6,274,35.5,278.6,25.2,276z"/>
	<path class="st0" d="M59.1,272.5c-8.9-7.4-3.7-35.8-5-46h6.4v31.1c-0.4,8.1,3.3,13.8,11.9,13.6c8.4,0.3,12-5.9,11.7-13.6v-31.1h5.8
		c-1.1,9.7,3.5,39.1-4.8,45.8C79.7,278,64.5,277.9,59.1,272.5z"/>
	<path class="st0" d="M101.3,226.4h4.5l26.9,38.2v-38.2h5.7v49.1h-4.9L107,238.1v37.4h-5.7V226.4z"/>
	<path class="st0" d="M161.5,231.5h-15.6v-5h38l-0.6,5h-15.4v44.1h-6.4V231.5z"/>
	<path class="st0" d="M190.9,269.7c-8.3-13.5-7.1-45.3,15-44.1c6.9,0,11.9,2.3,15,6.9c8.2,13.5,7.2,45.3-15,44.1
		C198.9,276.5,193.9,274.3,190.9,269.7z M215.9,265.9c3.8-6,3.8-23.7,0-29.8c-3.2-6.9-16.9-6.9-20.1,0c-1.9,3.4-2.9,8.4-2.9,14.9
		s1,11.5,2.9,14.9C199,272.7,212.7,272.7,215.9,265.9z"/>
	<path class="st0" d="M240.4,275.9c-2.6-0.4-4.8-1-6.6-1.7l1.1-4.9c9.4,3.7,29.2,3.1,22.1-10.7c-3.6-4.5-12.3-5.8-17-8.7
		c-7.7-3.5-9.2-16.1-2.4-21c5.7-4.6,16.9-3.9,24-1.5l-0.9,4.9c-8.6-3-26.9-2-20,10c3.7,4.2,12.3,5.8,16.9,8.6
		c7.9,3.5,9.3,16,3.1,21.5C256.5,276.8,247.1,277.2,240.4,275.9z"/>
	<path class="st1" d="M296.4,275.4c-12.5-2.6-13.6-23.4-6.3-31.3c5.1-6.1,19.6-6.4,24.7-0.4c3.4,3.1,4.4,10.6,4.1,16.6
		c1,1.8-22.2,0.4-22.5,0.8c0.3,9.9,12.4,7.7,19.6,6.7l0.8,7.5C309.7,276.6,302.7,277.3,296.4,275.4z M308.8,254.4
		c0.9-9.3-12.8-10.1-12.4,0H308.8z"/>
	<path class="st1" d="M325.3,240.4h8.9l0.2,2.5c29.9-14,22.9,14.2,23.6,32.7h-10.3v-23c0.5-6.5-8.2-4.8-12.2-3.5v26.5h-10.3
		L325.3,240.4z"/>
	<path class="st1" d="M381.1,240.4h8.9l0.4,2.9c3.1-2.8,8.5-4.3,12.6-3.7v9c-4-0.5-7.4-0.4-11.6,0.6v26.4h-10.3V240.4z"/>
	<path class="st1" d="M417,275.4c-12.5-2.6-13.6-23.4-6.3-31.3c5.1-6.1,19.6-6.4,24.7-0.4c3.4,3.1,4.4,10.6,4.1,16.6
		c1,1.8-22.2,0.4-22.5,0.8c0.3,9.9,12.4,7.7,19.6,6.7l0.8,7.5C430.4,276.6,423.3,277.3,417,275.4z M429.5,254.4
		c0.9-9.3-12.8-10.1-12.4,0H429.5z"/>
	<path class="st1" d="M449.1,273.5c-11.4-12.4-2.9-43.9,18.4-31.6v-17.7h10.3v51.3h-8.9l-0.2-2.5C463,276.9,454.1,278.3,449.1,273.5
		z M464.4,268.1c1.2-0.2,2.2-0.5,3.1-0.9v-19c-7.7-2.6-13.2,1-12.5,10.1C454.4,265.2,457.3,270.2,464.4,268.1z"/>
</g>
<g>
	<g id="svg_136">
		<g id="svg_47">
			<path id="svg_48" class="st2" d="M225.4,161.9h8.1v2.1h-5.8v3h5.4v2.1h-5.4v5.1h-2.3V161.9L225.4,161.9z"/>
			<path id="svg_49" class="st2" d="M234.2,165.2h2.2v5.2c0,1.1,0.8,1.9,1.9,1.9s1.9-0.8,1.9-1.9v-5.2h2.2v8.9h-2l-0.2-0.9h-0.1
				c-0.2,0.2-0.4,0.4-0.6,0.5c-0.4,0.3-1,0.5-1.9,0.5c-2,0-3.5-1.5-3.5-3.8L234.2,165.2L234.2,165.2L234.2,165.2z"/>
			<path id="svg_50" class="st2" d="M244.1,165.2h2l0.2,0.9h0.1c0.2-0.2,0.4-0.4,0.6-0.5c0.4-0.3,1-0.5,1.9-0.5c2,0,3.5,1.5,3.5,3.8
				v5.3h-2.2V169c0-1.1-0.8-1.9-1.9-1.9s-1.9,0.8-1.9,1.9v5.2h-2.2L244.1,165.2L244.1,165.2L244.1,165.2z"/>
			<path id="svg_51" class="st2" d="M260.4,173.2L260.4,173.2c-0.3,0.2-0.5,0.4-0.7,0.6c-0.4,0.3-1.1,0.6-2,0.6
				c-2.3,0-4.1-1.8-4.1-4.6s1.8-4.6,4.1-4.6c0.9,0,1.5,0.3,1.9,0.6c0.2,0.2,0.5,0.4,0.6,0.6h0.1v-4.3h2.2v12.2h-1.9L260.4,173.2
				L260.4,173.2z M260.3,169.7c0-1.7-0.9-2.6-2.3-2.6c-1.3,0-2.3,0.9-2.3,2.6c0,1.7,0.9,2.6,2.3,2.6
				C259.3,172.3,260.3,171.3,260.3,169.7z"/>
			<path id="svg_52" class="st2" d="M269.7,173.2L269.7,173.2c-0.2,0.2-0.5,0.4-0.7,0.5c-0.4,0.3-1,0.5-1.9,0.5
				c-2,0-3.2-1.2-3.2-2.7c0-1.7,1.2-3,3.7-3h2v-0.2c0-1-0.6-1.7-1.6-1.7s-1.5,0.6-1.6,1.1h-2.2c0.2-1.5,1.4-2.9,3.8-2.9
				c2.3,0,3.8,1.5,3.8,3.4v5.7H270L269.7,173.2L269.7,173.2z M269.5,170.3h-1.8c-1.1,0-1.7,0.4-1.7,1.1s0.5,1.1,1.4,1.1
				c1.3,0,2.1-0.8,2.1-2V170.3z"/>
			<path id="svg_53" class="st2" d="M281.6,170.8c-0.3,1.4-1.4,3.5-4.2,3.5c-2.6,0-4.5-1.9-4.5-4.6s1.9-4.6,4.5-4.6
				c2.8,0,3.9,2.1,4.2,3.4h-2.2c-0.2-0.5-0.7-1.4-2-1.4s-2.3,1-2.3,2.6s1,2.6,2.3,2.6s1.8-0.9,2-1.5H281.6L281.6,170.8L281.6,170.8z
				"/>
			<path id="svg_54" class="st2" d="M282.9,165.2h2.2v8.9h-2.2V165.2z"/>
			<path id="svg_55" class="st2" d="M295.4,169.7c0,2.7-1.9,4.6-4.5,4.6c-2.6,0-4.5-1.9-4.5-4.6s1.9-4.6,4.5-4.6
				C293.5,165,295.4,167,295.4,169.7z M293.2,169.7c0-1.6-1-2.6-2.3-2.6s-2.3,1-2.3,2.6s1,2.6,2.3,2.6S293.2,171.2,293.2,169.7z
				 M291.7,161.5h2.3l-2.1,2.5h-1.8L291.7,161.5L291.7,161.5z"/>
			<path id="svg_56" class="st2" d="M296.7,165.2h2l0.2,0.9h0.1c0.2-0.2,0.4-0.4,0.6-0.5c0.4-0.3,1-0.5,1.9-0.5c2,0,3.5,1.5,3.5,3.8
				v5.3h-2.2V169c0-1.1-0.8-1.9-1.9-1.9c-1.1,0-1.9,0.8-1.9,1.9v5.2h-2.2L296.7,165.2L296.7,165.2L296.7,165.2z"/>
			<g id="svg_57">
				<g id="svg_58">
					<circle id="svg_59" class="st2" cx="283.9" cy="162.6" r="1.3"/>
				</g>
			</g>
		</g>
		<g id="svg_21">
			<g id="svg_22">
				<path id="svg_23" class="st2" d="M228.1,181.2h-3.7V179h9.6v2.2h-3.7v10h-2.2V181.2L228.1,181.2L228.1,181.2z"/>
			</g>
			<g id="svg_24">
				<path id="svg_25" class="st2" d="M241.7,188.6c-0.2,0.7-1.3,2.8-4.1,2.8c-2.6,0-4.5-1.9-4.5-4.6s1.9-4.6,4.5-4.6
					c2.4,0,4.4,1.9,4.4,4.4c0,0.3,0,0.5,0,0.6v0.2h-6.6c0.2,1.2,1.1,2.1,2.3,2.1c1,0,1.7-0.6,1.8-1L241.7,188.6L241.7,188.6
					L241.7,188.6z M239.8,186c-0.2-1.1-0.9-2-2.2-2s-2.1,0.9-2.3,2H239.8z"/>
			</g>
			<g id="svg_26">
				<path id="svg_27" class="st2" d="M243.2,179h2.2v12.2h-2.2V179z"/>
			</g>
			<g id="svg_28">
				<path id="svg_29" class="st2" d="M255.4,188.6c-0.2,0.7-1.3,2.8-4.1,2.8c-2.6,0-4.5-1.9-4.5-4.6s1.9-4.6,4.5-4.6
					c2.4,0,4.4,1.9,4.4,4.4c0,0.3,0,0.5,0,0.6v0.2h-6.6c0.2,1.2,1.1,2.1,2.3,2.1c1,0,1.7-0.6,1.8-1L255.4,188.6L255.4,188.6
					L255.4,188.6z M253.4,186c-0.2-1.1-0.9-2-2.2-2s-2.1,0.9-2.3,2H253.4z"/>
			</g>
			<g id="svg_30">
				<path id="svg_31" class="st2" d="M257.6,184.4h-1.5v-2.1h1.5V181c0-1.3,0.9-2.2,2.2-2.2h1.9v1.9h-1.3c-0.4,0-0.6,0.3-0.6,0.6v1
					h1.9v2.1h-1.9v6.8h-2.2V184.4L257.6,184.4z"/>
			</g>
			<g id="svg_32">
				<path id="svg_33" class="st2" d="M271.1,186.8c0,2.7-1.9,4.6-4.5,4.6c-2.6,0-4.5-1.9-4.5-4.6s1.9-4.6,4.5-4.6
					C269.2,182.1,271.1,184.1,271.1,186.8z M268.9,186.8c0-1.6-1-2.6-2.3-2.6s-2.3,1-2.3,2.6s1,2.6,2.3,2.6
					C267.9,189.4,268.9,188.3,268.9,186.8z"/>
			</g>
			<g id="svg_34">
				<path id="svg_35" class="st2" d="M272.4,182.3h2l0.2,0.9h0.1c0.2-0.2,0.4-0.4,0.6-0.5c0.4-0.3,1-0.5,1.9-0.5
					c2,0,3.5,1.5,3.5,3.8v5.3h-2.2v-5.2c0-1.1-0.8-1.9-1.9-1.9c-1.1,0-1.9,0.8-1.9,1.9v5.2h-2.2L272.4,182.3L272.4,182.3
					L272.4,182.3z"/>
			</g>
			<g id="svg_36">
				<path id="svg_37" class="st2" d="M294.5,187.9c-0.3,1.4-1.4,3.5-4.2,3.5c-2.6,0-4.5-1.9-4.5-4.6s1.9-4.6,4.5-4.6
					c2.8,0,3.9,2.1,4.2,3.4h-2.2c-0.2-0.5-0.7-1.4-2-1.4s-2.3,1-2.3,2.6s1,2.6,2.3,2.6s1.8-0.9,2-1.5H294.5L294.5,187.9z"/>
			</g>
			<g id="svg_38">
				<path id="svg_39" class="st2" d="M301.1,190.3L301.1,190.3c-0.2,0.2-0.5,0.4-0.7,0.5c-0.4,0.3-1,0.5-1.9,0.5
					c-2,0-3.2-1.2-3.2-2.7c0-1.7,1.2-3,3.7-3h2v-0.2c0-1-0.6-1.7-1.6-1.7s-1.5,0.6-1.6,1.1h-2.2c0.2-1.5,1.4-2.9,3.8-2.9
					c2.3,0,3.8,1.5,3.8,3.4v5.7h-1.8L301.1,190.3L301.1,190.3z M300.9,187.4h-1.8c-1.1,0-1.7,0.4-1.7,1.1s0.5,1.1,1.4,1.1
					c1.3,0,2.1-0.8,2.1-2V187.4z"/>
			</g>
			<g id="svg_40">
				<path id="svg_41" class="st2" d="M282.3,182.3h2.2v8.9h-2.2V182.3z"/>
			</g>
			<g id="svg_42">
				<g id="svg_43">
					<circle id="svg_44" class="st2" cx="283.4" cy="179.7" r="1.3"/>
				</g>
			</g>
			<g id="svg_45">
				<polygon id="svg_46" class="st2" points="267.4,178.6 269.6,178.6 267.5,181.1 265.7,181.1 				"/>
			</g>
		</g>
		<g id="svg_2">
			<g id="svg_3">
				<g id="svg_4">
					<g id="svg_5">
						<g id="svg_6">
							<g id="svg_7">
								<circle id="svg_8" class="st2" cx="186.5" cy="164" r="4.9"/>
							</g>
						</g>
						<g id="svg_9">
							<g id="svg_10">
								<circle id="svg_11" class="st2" cx="198.1" cy="164" r="4.9"/>
							</g>
						</g>
						<g id="svg_12">
							<g id="svg_13">
								<circle id="svg_14" class="st2" cx="209.7" cy="164" r="4.9"/>
							</g>
						</g>
						<g id="svg_15">
							<g id="svg_16">
								<circle id="svg_17" class="st2" cx="198.1" cy="175.6" r="4.9"/>
							</g>
						</g>
						<g id="svg_18">
							<g id="svg_19">
								<circle id="svg_20" class="st2" cx="198.1" cy="187.2" r="4.9"/>
							</g>
						</g>
					</g>
				</g>
			</g>
		</g>
	</g>
</g>
<g class="st3">
	<g class="st4">
		<path class="st5" d="M67.9,247.6c1.6,2.3,2.4,5.1,2.4,8.4c0,4.6-1.6,8.2-4.9,10.7c-3.2,2.5-8,3.8-14.2,3.8H27.1v-53.2h22.8
			c5.7,0,10.2,1.2,13.3,3.7c3.1,2.5,4.7,5.8,4.7,10.1c0,2.6-0.6,5-1.7,7s-2.6,3.6-4.6,4.7C64.2,243.7,66.3,245.3,67.9,247.6z
			 M36.1,225v14.7h12.8c3.1,0,5.6-0.6,7.3-1.9c1.7-1.2,2.5-3.1,2.5-5.4c0-2.4-0.8-4.3-2.5-5.5s-4.1-1.9-7.3-1.9L36.1,225L36.1,225z
			 M61.2,255c0-5.1-3.5-7.7-10.5-7.7H36.1v15.4h14.6C57.7,262.7,61.2,260.1,61.2,255z"/>
		<path class="st5" d="M79.9,217.2h9V262h25.4v8.4H79.9V217.2z"/>
		<path class="st5" d="M129.9,267.6c-4-2.4-7.1-5.6-9.4-9.8c-2.3-4.2-3.4-8.9-3.4-14s1.1-9.8,3.4-14s5.4-7.4,9.4-9.8
			c4-2.4,8.4-3.5,13.4-3.5s9.4,1.2,13.4,3.5c4,2.4,7.1,5.6,9.4,9.8c2.3,4.2,3.4,8.8,3.4,14.1c0,5.2-1.1,9.9-3.4,14.1
			c-2.3,4.2-5.4,7.4-9.4,9.8s-8.4,3.5-13.4,3.5C138.4,271.2,133.9,270,129.9,267.6z M152.1,260.1c2.6-1.6,4.6-3.8,6.1-6.7
			c1.5-2.9,2.2-6.1,2.2-9.6s-0.7-6.8-2.2-9.6c-1.5-2.9-3.5-5.1-6.1-6.7c-2.6-1.6-5.5-2.4-8.8-2.4c-3.2,0-6.2,0.8-8.8,2.4
			c-2.6,1.6-4.6,3.8-6.1,6.7s-2.2,6.1-2.2,9.6s0.7,6.8,2.2,9.6c1.5,2.9,3.5,5.1,6.1,6.7s5.5,2.4,8.8,2.4S149.5,261.7,152.1,260.1z"
			/>
		<path class="st5" d="M188.4,267.6c-4-2.4-7.1-5.6-9.4-9.8c-2.3-4.2-3.4-8.9-3.4-14s1.1-9.8,3.4-14c2.3-4.2,5.4-7.4,9.4-9.8
			c4-2.4,8.4-3.5,13.4-3.5s9.4,1.2,13.4,3.5c4,2.4,7.1,5.6,9.4,9.8c2.3,4.2,3.4,8.8,3.4,14.1c0,5.2-1.1,9.9-3.4,14.1
			c-2.3,4.2-5.4,7.4-9.4,9.8s-8.4,3.5-13.4,3.5C196.8,271.2,192.4,270,188.4,267.6z M210.5,260.1c2.6-1.6,4.6-3.8,6.1-6.7
			c1.5-2.9,2.2-6.1,2.2-9.6s-0.7-6.8-2.2-9.6c-1.5-2.9-3.5-5.1-6.1-6.7c-2.6-1.6-5.5-2.4-8.8-2.4c-3.2,0-6.2,0.8-8.8,2.4
			c-2.6,1.6-4.6,3.8-6.1,6.7s-2.2,6.1-2.2,9.6s0.7,6.8,2.2,9.6c1.5,2.9,3.5,5.1,6.1,6.7s5.5,2.4,8.8,2.4S208,261.7,210.5,260.1z"/>
	</g>
	<g class="st4">
		<path class="st5" d="M315.2,270.4l-0.1-35.3l-16,29.2h-4l-16-28.7v34.8h-8.6v-53.2h7.4l19.4,35.3l19-35.3h7.4l0.1,53.2H315.2z"/>
		<path class="st5" d="M346.2,267.6c-4-2.4-7.1-5.6-9.4-9.8c-2.3-4.2-3.4-8.9-3.4-14s1.1-9.8,3.4-14s5.4-7.4,9.4-9.8
			c4-2.4,8.4-3.5,13.4-3.5s9.4,1.2,13.4,3.5c4,2.4,7.1,5.6,9.4,9.8s3.4,8.8,3.4,14.1c0,5.2-1.1,9.9-3.4,14.1s-5.4,7.4-9.4,9.8
			s-8.5,3.5-13.4,3.5S350.2,270,346.2,267.6z M368.4,260.1c2.6-1.6,4.6-3.8,6.1-6.7c1.5-2.9,2.2-6.1,2.2-9.6s-0.7-6.8-2.2-9.6
			c-1.5-2.9-3.5-5.1-6.1-6.7c-2.6-1.6-5.5-2.4-8.8-2.4c-3.2,0-6.2,0.8-8.8,2.4c-2.6,1.6-4.6,3.8-6.1,6.7s-2.2,6.1-2.2,9.6
			s0.7,6.8,2.2,9.6c1.5,2.9,3.5,5.1,6.1,6.7s5.5,2.4,8.8,2.4S365.8,261.7,368.4,260.1z"/>
		<path class="st5" d="M395.4,217.2h21.3c5.2,0,9.8,1.1,13.8,3.3s7.2,5.3,9.4,9.3c2.2,4,3.3,8.7,3.3,13.9c0,5.3-1.1,9.9-3.3,13.9
			c-2.2,4-5.3,7.1-9.4,9.3c-4,2.2-8.6,3.3-13.8,3.3h-21.3V217.2z M416.2,262c3.6,0,6.7-0.7,9.4-2.2c2.7-1.5,4.8-3.6,6.3-6.4
			c1.5-2.8,2.2-6,2.2-9.6s-0.7-6.9-2.2-9.6c-1.5-2.8-3.5-4.9-6.3-6.4c-2.7-1.5-5.8-2.2-9.4-2.2h-11.8v36.5L416.2,262L416.2,262z"/>
	</g>
	<rect x="246" y="166.2" class="st6" width="8.5" height="156.6"/>
	<rect x="246" y="314.7" class="st6" width="216.1" height="8.2"/>
	<rect x="453.6" y="166.3" class="st6" width="8.5" height="156.6"/>
	<rect x="246" y="166.2" class="st6" width="216.1" height="8.2"/>
</g>
</svg>
