<?xml version="1.0" encoding="utf-8"?>
<!-- Generator: Adobe Illustrator 25.4.1, SVG Export Plug-In . SVG Version: 6.00 Build 0)  -->
<svg version="1.1" id="Layer_1" xmlns="http://www.w3.org/2000/svg" xmlns:xlink="http://www.w3.org/1999/xlink" x="0px" y="0px"
	 viewBox="0 0 500 500" style="enable-background:new 0 0 500 500;" xml:space="preserve">
<style type="text/css">
	.st0{fill:#4291CE;}
	.st1{fill:#0B4258;}
	.st2{fill:#8E8E8E;}
	.st3{display:none;}
	.st4{display:inline;}
	.st5{fill:#00ABA8;}
	.st6{display:inline;fill:#00ABA8;}
</style>
<g>
	<path class="st0" d="M1,314l-0.7-5.5c7.3,1.4,14.7,0.2,13.6-9v-40h7.1v40C22.4,311.8,12.3,316.9,1,314z"/>
	<path class="st0" d="M38.3,310.2c-9.8-8.2-4.1-39.4-5.5-50.7h7.1v34.3c-0.4,8.9,3.6,15.2,13.1,15c9.3,0.3,13.2-6.5,12.9-15v-34.3
		h6.4c-1.2,10.7,3.9,43.1-5.3,50.5C61,316.2,44.3,316.1,38.3,310.2z"/>
	<path class="st0" d="M84.8,259.4h5l29.6,42.1v-42.1h6.3v54.1h-5.4l-29.2-41.2v41.2h-6.3V259.4z"/>
	<path class="st0" d="M151.2,265H134v-5.5h41.9l-0.7,5.5h-17v48.6h-7.1V265z"/>
	<path class="st0" d="M183.6,307.1c-9.1-14.9-7.8-49.9,16.5-48.6c7.6,0,13.1,2.5,16.5,7.6c9,14.9,7.9,49.9-16.5,48.6
		C192.4,314.6,186.9,312.1,183.6,307.1z M211.1,302.9c4.2-6.6,4.2-26.1,0-32.8c-3.5-7.6-18.6-7.6-22.1,0c-2.1,3.7-3.2,9.3-3.2,16.4
		c0,7.2,1.1,12.7,3.2,16.4C192.5,310.4,207.6,310.4,211.1,302.9z"/>
	<path class="st0" d="M238.1,313.9c-2.9-0.4-5.3-1.1-7.3-1.9l1.2-5.4c10.4,4.1,32.2,3.4,24.3-11.8c-4-5-13.6-6.4-18.7-9.6
		c-8.5-3.9-10.1-17.7-2.6-23.1c6.3-5.1,18.6-4.3,26.4-1.7l-1,5.4c-9.5-3.3-29.6-2.2-22,11c4.1,4.6,13.6,6.4,18.6,9.5
		c8.7,3.9,10.2,17.6,3.4,23.7C255.8,314.9,245.5,315.3,238.1,313.9z"/>
	<path class="st1" d="M299.8,313.3c-13.8-2.9-15-25.8-6.9-34.5c5.6-6.7,21.6-7.1,27.2-0.4c3.7,3.4,4.8,11.7,4.5,18.3
		c1.1,2-24.5,0.4-24.8,0.9c0.3,10.9,13.7,8.5,21.6,7.4l0.9,8.3C314.5,314.7,306.7,315.4,299.8,313.3z M313.5,290.2
		c1-10.2-14.1-11.1-13.7,0H313.5z"/>
	<path class="st1" d="M331.6,274.8h9.8l0.2,2.8c32.9-15.4,25.2,15.6,26,36h-11.3v-25.3c0.6-7.2-9-5.3-13.4-3.9v29.2h-11.3
		L331.6,274.8z"/>
	<path class="st1" d="M393.1,274.8h9.8l0.4,3.2c3.4-3.1,9.4-4.7,13.9-4.1v9.9c-4.4-0.6-8.2-0.4-12.8,0.7v29.1h-11.3V274.8z"/>
	<path class="st1" d="M432.7,313.3c-13.8-2.9-15-25.8-6.9-34.5c5.6-6.7,21.6-7.1,27.2-0.4c3.7,3.4,4.8,11.7,4.5,18.3
		c1.1,2-24.5,0.4-24.8,0.9c0.3,10.9,13.7,8.5,21.6,7.4l0.9,8.3C447.4,314.7,439.6,315.4,432.7,313.3z M446.5,290.2
		c1-10.2-14.1-11.1-13.7,0H446.5z"/>
	<path class="st1" d="M468,311.3c-12.6-13.7-3.2-48.4,20.3-34.8v-19.5h11.3v56.5h-9.8l-0.2-2.8C483.4,315,473.6,316.5,468,311.3z
		 M484.9,305.3c1.3-0.2,2.4-0.6,3.4-1v-20.9c-8.5-2.9-14.5,1.1-13.8,11.1C473.9,302.1,477.1,307.6,484.9,305.3z"/>
</g>
<g>
	<g id="svg_136">
		<g id="svg_47">
			<path id="svg_48" class="st2" d="M221.6,188.3h8.9v2.3h-6.4v3.3h5.9v2.3h-5.9v5.6h-2.5V188.3L221.6,188.3z"/>
			<path id="svg_49" class="st2" d="M231.3,191.9h2.4v5.7c0,1.2,0.9,2.1,2.1,2.1s2.1-0.9,2.1-2.1v-5.7h2.4v9.8h-2.2l-0.2-1h-0.1
				c-0.2,0.2-0.4,0.4-0.7,0.6c-0.4,0.3-1.1,0.6-2.1,0.6c-2.2,0-3.9-1.7-3.9-4.2L231.3,191.9L231.3,191.9L231.3,191.9z"/>
			<path id="svg_50" class="st2" d="M242.2,191.9h2.2l0.2,1h0.1c0.2-0.2,0.4-0.4,0.7-0.6c0.4-0.3,1.1-0.6,2.1-0.6
				c2.2,0,3.9,1.7,3.9,4.2v5.8h-2.4v-5.7c0-1.2-0.9-2.1-2.1-2.1s-2.1,0.9-2.1,2.1v5.7h-2.4L242.2,191.9L242.2,191.9L242.2,191.9z"/>
			<path id="svg_51" class="st2" d="M260.1,200.7L260.1,200.7c-0.3,0.2-0.6,0.4-0.8,0.7c-0.4,0.3-1.2,0.7-2.2,0.7
				c-2.5,0-4.5-2-4.5-5.1c0-3.1,2-5.1,4.5-5.1c1,0,1.7,0.3,2.1,0.7c0.2,0.2,0.6,0.4,0.7,0.7h0.1v-4.7h2.4V202h-2.1L260.1,200.7
				L260.1,200.7z M260,196.9c0-1.9-1-2.9-2.5-2.9c-1.4,0-2.5,1-2.5,2.9s1,2.9,2.5,2.9C258.9,199.8,260,198.7,260,196.9z"/>
			<path id="svg_52" class="st2" d="M270.4,200.7L270.4,200.7c-0.2,0.2-0.6,0.4-0.8,0.6c-0.4,0.3-1.1,0.6-2.1,0.6
				c-2.2,0-3.5-1.3-3.5-3c0-1.9,1.3-3.3,4.1-3.3h2.2v-0.2c0-1.1-0.7-1.9-1.8-1.9s-1.7,0.7-1.8,1.2h-2.4c0.2-1.7,1.5-3.2,4.2-3.2
				c2.5,0,4.2,1.7,4.2,3.7v6.3h-2L270.4,200.7L270.4,200.7z M270.2,197.6h-2c-1.2,0-1.9,0.4-1.9,1.2s0.6,1.2,1.5,1.2
				c1.4,0,2.3-0.9,2.3-2.2V197.6z"/>
			<path id="svg_53" class="st2" d="M283.5,198.1c-0.3,1.5-1.5,3.9-4.6,3.9c-2.9,0-5-2.1-5-5.1s2.1-5.1,5-5.1c3.1,0,4.3,2.3,4.6,3.7
				h-2.4c-0.2-0.6-0.8-1.5-2.2-1.5s-2.5,1.1-2.5,2.9c0,1.8,1.1,2.9,2.5,2.9s2-1,2.2-1.7H283.5L283.5,198.1L283.5,198.1z"/>
			<path id="svg_54" class="st2" d="M284.9,191.9h2.4v9.8h-2.4V191.9z"/>
			<path id="svg_55" class="st2" d="M298.7,196.9c0,3-2.1,5.1-5,5.1s-5-2.1-5-5.1s2.1-5.1,5-5.1
				C296.6,191.7,298.7,193.9,298.7,196.9z M296.3,196.9c0-1.8-1.1-2.9-2.5-2.9c-1.4,0-2.5,1.1-2.5,2.9c0,1.8,1.1,2.9,2.5,2.9
				C295.2,199.8,296.3,198.5,296.3,196.9z M294.6,187.9h2.5l-2.3,2.8h-2L294.6,187.9L294.6,187.9z"/>
			<path id="svg_56" class="st2" d="M300.1,191.9h2.2l0.2,1h0.1c0.2-0.2,0.4-0.4,0.7-0.6c0.4-0.3,1.1-0.6,2.1-0.6
				c2.2,0,3.9,1.7,3.9,4.2v5.8h-2.4v-5.7c0-1.2-0.9-2.1-2.1-2.1s-2.1,0.9-2.1,2.1v5.7h-2.4L300.1,191.9L300.1,191.9L300.1,191.9z"/>
			<g id="svg_57">
				<g id="svg_58">
					<circle id="svg_59" class="st2" cx="286" cy="189.1" r="1.4"/>
				</g>
			</g>
		</g>
		<g id="svg_21">
			<g id="svg_22">
				<path id="svg_23" class="st2" d="M224.5,209.6h-4.1v-2.4H231v2.4H227v11h-2.4L224.5,209.6L224.5,209.6L224.5,209.6z"/>
			</g>
			<g id="svg_24">
				<path id="svg_25" class="st2" d="M239.5,217.7c-0.2,0.8-1.4,3.1-4.5,3.1c-2.9,0-5-2.1-5-5.1s2.1-5.1,5-5.1
					c2.6,0,4.8,2.1,4.8,4.8c0,0.3,0,0.6,0,0.7v0.2h-7.3c0.2,1.3,1.2,2.3,2.5,2.3c1.1,0,1.9-0.7,2-1.1L239.5,217.7L239.5,217.7
					L239.5,217.7z M237.4,214.8c-0.2-1.2-1-2.2-2.4-2.2s-2.3,1-2.5,2.2H237.4z"/>
			</g>
			<g id="svg_26">
				<path id="svg_27" class="st2" d="M241.2,207.1h2.4v13.4h-2.4V207.1z"/>
			</g>
			<g id="svg_28">
				<path id="svg_29" class="st2" d="M254.6,217.7c-0.2,0.8-1.4,3.1-4.5,3.1c-2.9,0-5-2.1-5-5.1s2.1-5.1,5-5.1
					c2.6,0,4.8,2.1,4.8,4.8c0,0.3,0,0.6,0,0.7v0.2h-7.3c0.2,1.3,1.2,2.3,2.5,2.3c1.1,0,1.9-0.7,2-1.1L254.6,217.7L254.6,217.7
					L254.6,217.7z M252.4,214.8c-0.2-1.2-1-2.2-2.4-2.2s-2.3,1-2.5,2.2H252.4z"/>
			</g>
			<g id="svg_30">
				<path id="svg_31" class="st2" d="M257.1,213.1h-1.7v-2.3h1.7v-1.4c0-1.4,1-2.4,2.4-2.4h2.1v2.1h-1.4c-0.4,0-0.7,0.3-0.7,0.7v1.1
					h2.1v2.3h-2.1v7.5h-2.4V213.1L257.1,213.1z"/>
			</g>
			<g id="svg_32">
				<path id="svg_33" class="st2" d="M271.9,215.7c0,3-2.1,5.1-5,5.1s-5-2.1-5-5.1s2.1-5.1,5-5.1
					C269.8,210.6,271.9,212.8,271.9,215.7z M269.5,215.7c0-1.8-1.1-2.9-2.5-2.9c-1.4,0-2.5,1.1-2.5,2.9c0,1.8,1.1,2.9,2.5,2.9
					C268.4,218.6,269.5,217.4,269.5,215.7z"/>
			</g>
			<g id="svg_34">
				<path id="svg_35" class="st2" d="M273.4,210.8h2.2l0.2,1h0.1c0.2-0.2,0.4-0.4,0.7-0.6c0.4-0.3,1.1-0.6,2.1-0.6
					c2.2,0,3.9,1.7,3.9,4.2v5.8h-2.4V215c0-1.2-0.9-2.1-2.1-2.1c-1.2,0-2.1,0.9-2.1,2.1v5.7h-2.4L273.4,210.8L273.4,210.8
					L273.4,210.8z"/>
			</g>
			<g id="svg_36">
				<path id="svg_37" class="st2" d="M297.7,216.9c-0.3,1.5-1.5,3.9-4.6,3.9c-2.9,0-5-2.1-5-5.1s2.1-5.1,5-5.1
					c3.1,0,4.3,2.3,4.6,3.7h-2.4c-0.2-0.6-0.8-1.5-2.2-1.5c-1.4,0-2.5,1.1-2.5,2.9c0,1.8,1.1,2.9,2.5,2.9c1.4,0,2-1,2.2-1.7H297.7
					L297.7,216.9z"/>
			</g>
			<g id="svg_38">
				<path id="svg_39" class="st2" d="M305,219.6L305,219.6c-0.2,0.2-0.6,0.4-0.8,0.6c-0.4,0.3-1.1,0.6-2.1,0.6c-2.2,0-3.5-1.3-3.5-3
					c0-1.9,1.3-3.3,4.1-3.3h2.2v-0.2c0-1.1-0.7-1.9-1.8-1.9c-1.1,0-1.7,0.7-1.8,1.2h-2.4c0.2-1.7,1.5-3.2,4.2-3.2
					c2.5,0,4.2,1.7,4.2,3.7v6.3h-2L305,219.6L305,219.6z M304.8,216.4h-2c-1.2,0-1.9,0.4-1.9,1.2s0.6,1.2,1.5,1.2
					c1.4,0,2.3-0.9,2.3-2.2V216.4z"/>
			</g>
			<g id="svg_40">
				<path id="svg_41" class="st2" d="M284.3,210.8h2.4v9.8h-2.4V210.8z"/>
			</g>
			<g id="svg_42">
				<g id="svg_43">
					<circle id="svg_44" class="st2" cx="285.5" cy="207.9" r="1.4"/>
				</g>
			</g>
			<g id="svg_45">
				<polygon id="svg_46" class="st2" points="267.8,206.7 270.3,206.7 268,209.4 266,209.4 				"/>
			</g>
		</g>
		<g id="svg_2">
			<g id="svg_3">
				<g id="svg_4">
					<g id="svg_5">
						<g id="svg_6">
							<g id="svg_7">
								<circle id="svg_8" class="st2" cx="178.7" cy="190.6" r="5.4"/>
							</g>
						</g>
						<g id="svg_9">
							<g id="svg_10">
								<circle id="svg_11" class="st2" cx="191.5" cy="190.6" r="5.4"/>
							</g>
						</g>
						<g id="svg_12">
							<g id="svg_13">
								<circle id="svg_14" class="st2" cx="204.3" cy="190.6" r="5.4"/>
							</g>
						</g>
						<g id="svg_15">
							<g id="svg_16">
								<circle id="svg_17" class="st2" cx="191.5" cy="203.4" r="5.4"/>
							</g>
						</g>
						<g id="svg_18">
							<g id="svg_19">
								<circle id="svg_20" class="st2" cx="191.5" cy="216.2" r="5.4"/>
							</g>
						</g>
					</g>
				</g>
			</g>
		</g>
	</g>
</g>
<g class="st3">
	<g class="st4">
		<path class="st5" d="M67.9,247.6c1.6,2.3,2.4,5.1,2.4,8.4c0,4.6-1.6,8.2-4.9,10.7c-3.2,2.5-8,3.8-14.2,3.8H27.1v-53.2h22.8
			c5.7,0,10.2,1.2,13.3,3.7c3.1,2.5,4.7,5.8,4.7,10.1c0,2.6-0.6,5-1.7,7s-2.6,3.6-4.6,4.7C64.2,243.7,66.3,245.3,67.9,247.6z
			 M36.1,225v14.7h12.8c3.1,0,5.6-0.6,7.3-1.9c1.7-1.2,2.5-3.1,2.5-5.4c0-2.4-0.8-4.3-2.5-5.5s-4.1-1.9-7.3-1.9L36.1,225L36.1,225z
			 M61.2,255c0-5.1-3.5-7.7-10.5-7.7H36.1v15.4h14.6C57.7,262.7,61.2,260.1,61.2,255z"/>
		<path class="st5" d="M79.9,217.2h9V262h25.4v8.4H79.9V217.2z"/>
		<path class="st5" d="M129.9,267.6c-4-2.4-7.1-5.6-9.4-9.8c-2.3-4.2-3.4-8.9-3.4-14s1.1-9.8,3.4-14s5.4-7.4,9.4-9.8
			c4-2.4,8.4-3.5,13.4-3.5s9.4,1.2,13.4,3.5c4,2.4,7.1,5.6,9.4,9.8c2.3,4.2,3.4,8.8,3.4,14.1c0,5.2-1.1,9.9-3.4,14.1
			c-2.3,4.2-5.4,7.4-9.4,9.8s-8.4,3.5-13.4,3.5C138.4,271.2,133.9,270,129.9,267.6z M152.1,260.1c2.6-1.6,4.6-3.8,6.1-6.7
			c1.5-2.9,2.2-6.1,2.2-9.6s-0.7-6.8-2.2-9.6c-1.5-2.9-3.5-5.1-6.1-6.7c-2.6-1.6-5.5-2.4-8.8-2.4c-3.2,0-6.2,0.8-8.8,2.4
			c-2.6,1.6-4.6,3.8-6.1,6.7s-2.2,6.1-2.2,9.6s0.7,6.8,2.2,9.6c1.5,2.9,3.5,5.1,6.1,6.7s5.5,2.4,8.8,2.4S149.5,261.7,152.1,260.1z"
			/>
		<path class="st5" d="M188.4,267.6c-4-2.4-7.1-5.6-9.4-9.8c-2.3-4.2-3.4-8.9-3.4-14s1.1-9.8,3.4-14c2.3-4.2,5.4-7.4,9.4-9.8
			c4-2.4,8.4-3.5,13.4-3.5s9.4,1.2,13.4,3.5c4,2.4,7.1,5.6,9.4,9.8c2.3,4.2,3.4,8.8,3.4,14.1c0,5.2-1.1,9.9-3.4,14.1
			c-2.3,4.2-5.4,7.4-9.4,9.8s-8.4,3.5-13.4,3.5C196.8,271.2,192.4,270,188.4,267.6z M210.5,260.1c2.6-1.6,4.6-3.8,6.1-6.7
			c1.5-2.9,2.2-6.1,2.2-9.6s-0.7-6.8-2.2-9.6c-1.5-2.9-3.5-5.1-6.1-6.7c-2.6-1.6-5.5-2.4-8.8-2.4c-3.2,0-6.2,0.8-8.8,2.4
			c-2.6,1.6-4.6,3.8-6.1,6.7s-2.2,6.1-2.2,9.6s0.7,6.8,2.2,9.6c1.5,2.9,3.5,5.1,6.1,6.7s5.5,2.4,8.8,2.4S208,261.7,210.5,260.1z"/>
	</g>
	<g class="st4">
		<path class="st5" d="M315.2,270.4l-0.1-35.3l-16,29.2h-4l-16-28.7v34.8h-8.6v-53.2h7.4l19.4,35.3l19-35.3h7.4l0.1,53.2H315.2z"/>
		<path class="st5" d="M346.2,267.6c-4-2.4-7.1-5.6-9.4-9.8c-2.3-4.2-3.4-8.9-3.4-14s1.1-9.8,3.4-14s5.4-7.4,9.4-9.8
			c4-2.4,8.4-3.5,13.4-3.5s9.4,1.2,13.4,3.5c4,2.4,7.1,5.6,9.4,9.8s3.4,8.8,3.4,14.1c0,5.2-1.1,9.9-3.4,14.1s-5.4,7.4-9.4,9.8
			s-8.5,3.5-13.4,3.5S350.2,270,346.2,267.6z M368.4,260.1c2.6-1.6,4.6-3.8,6.1-6.7c1.5-2.9,2.2-6.1,2.2-9.6s-0.7-6.8-2.2-9.6
			c-1.5-2.9-3.5-5.1-6.1-6.7c-2.6-1.6-5.5-2.4-8.8-2.4c-3.2,0-6.2,0.8-8.8,2.4c-2.6,1.6-4.6,3.8-6.1,6.7s-2.2,6.1-2.2,9.6
			s0.7,6.8,2.2,9.6c1.5,2.9,3.5,5.1,6.1,6.7s5.5,2.4,8.8,2.4S365.8,261.7,368.4,260.1z"/>
		<path class="st5" d="M395.4,217.2h21.3c5.2,0,9.8,1.1,13.8,3.3s7.2,5.3,9.4,9.3c2.2,4,3.3,8.7,3.3,13.9c0,5.3-1.1,9.9-3.3,13.9
			c-2.2,4-5.3,7.1-9.4,9.3c-4,2.2-8.6,3.3-13.8,3.3h-21.3V217.2z M416.2,262c3.6,0,6.7-0.7,9.4-2.2c2.7-1.5,4.8-3.6,6.3-6.4
			c1.5-2.8,2.2-6,2.2-9.6s-0.7-6.9-2.2-9.6c-1.5-2.8-3.5-4.9-6.3-6.4c-2.7-1.5-5.8-2.2-9.4-2.2h-11.8v36.5L416.2,262L416.2,262z"/>
	</g>
	<rect x="246" y="166.2" class="st6" width="8.5" height="156.6"/>
	<rect x="246" y="314.7" class="st6" width="216.1" height="8.2"/>
	<rect x="453.6" y="166.3" class="st6" width="8.5" height="156.6"/>
	<rect x="246" y="166.2" class="st6" width="216.1" height="8.2"/>
</g>
</svg>
