<?xml version="1.0" encoding="utf-8"?>
<!-- Generator: Adobe Illustrator 25.4.1, SVG Export Plug-In . SVG Version: 6.00 Build 0)  -->
<svg version="1.1" id="Layer_1" xmlns="http://www.w3.org/2000/svg" xmlns:xlink="http://www.w3.org/1999/xlink" x="0px" y="0px"
	 viewBox="0 0 500 500" style="enable-background:new 0 0 500 500;" xml:space="preserve">
<style type="text/css">
	.st0{fill:#4291CE;}
	.st1{fill:#0B4258;}
	.st2{fill:#8E8E8E;}
	.st3{display:none;}
	.st4{display:inline;}
	.st5{fill:#00ABA8;}
	.st6{display:inline;fill:#00ABA8;}
</style>
<g>
	<path class="st0" d="M22.1,288.3l-0.6-5c6.6,1.3,13.3,0.2,12.3-8.2c0,0,0-36.3,0-36.3h6.4l0,36.3C41.5,286.3,32.4,290.9,22.1,288.3
		z"/>
	<path class="st0" d="M56,284.8c-8.9-7.4-3.7-35.8-5-46h6.4c0,0,0,31.1,0,31.1c-0.4,8.1,3.3,13.8,11.9,13.6
		c8.4,0.3,12-5.9,11.7-13.6c0,0,0-31.1,0-31.1h5.8c-1.1,9.7,3.5,39.1-4.8,45.8C76.6,290.3,61.4,290.2,56,284.8z"/>
	<path class="st0" d="M98.2,238.7h4.5l26.9,38.2l0-38.2h5.7l0,49.1h-4.9l-26.5-37.4l0,37.4h-5.7L98.2,238.7z"/>
	<path class="st0" d="M158.4,243.8h-15.6l0-5l38,0l-0.6,5h-15.4l0,44.1l-6.4,0L158.4,243.8z"/>
	<path class="st0" d="M187.8,282c-8.3-13.5-7.1-45.3,15-44.1c6.9,0,11.9,2.3,15,6.9c8.2,13.5,7.2,45.3-15,44.1
		C195.8,288.8,190.8,286.6,187.8,282z M212.8,278.2c3.8-6,3.8-23.7,0-29.8c-3.2-6.9-16.9-6.9-20.1,0c-1.9,3.4-2.9,8.4-2.9,14.9
		c0,6.5,1,11.5,2.9,14.9C195.9,285,209.6,285,212.8,278.2z"/>
	<path class="st0" d="M237.3,288.2c-2.6-0.4-4.8-1-6.6-1.7l1.1-4.9c9.4,3.7,29.2,3.1,22.1-10.7c-3.6-4.5-12.3-5.8-17-8.7
		c-7.7-3.5-9.2-16.1-2.4-21c5.7-4.6,16.9-3.9,24-1.5l-0.9,4.9c-8.6-3-26.9-2-20,10c3.7,4.2,12.3,5.8,16.9,8.6
		c7.9,3.5,9.3,16,3.1,21.5C253.4,289.1,244,289.5,237.3,288.2z"/>
	<path class="st1" d="M293.3,287.7c-12.5-2.6-13.6-23.4-6.3-31.3c5.1-6.1,19.6-6.4,24.7-0.4c3.4,3.1,4.4,10.6,4.1,16.6
		c1,1.8-22.2,0.4-22.5,0.8c0.3,9.9,12.4,7.7,19.6,6.7l0.8,7.5C306.6,288.9,299.6,289.6,293.3,287.7z M305.7,266.7
		c0.9-9.3-12.8-10.1-12.4,0H305.7z"/>
	<path class="st1" d="M322.2,252.7l8.9,0l0.2,2.5c29.9-14,22.9,14.2,23.6,32.7l-10.3,0l0-23c0.5-6.5-8.2-4.8-12.2-3.5l0,26.5
		l-10.3,0L322.2,252.7z"/>
	<path class="st1" d="M378,252.7h8.9l0.4,2.9c3.1-2.8,8.5-4.3,12.6-3.7l0,9c-4-0.5-7.4-0.4-11.6,0.6l0,26.4H378L378,252.7z"/>
	<path class="st1" d="M413.9,287.7c-12.5-2.6-13.6-23.4-6.3-31.3c5.1-6.1,19.6-6.4,24.7-0.4c3.4,3.1,4.4,10.6,4.1,16.6
		c1,1.8-22.2,0.4-22.5,0.8c0.3,9.9,12.4,7.7,19.6,6.7l0.8,7.5C427.3,288.9,420.2,289.6,413.9,287.7z M426.4,266.7
		c0.9-9.3-12.8-10.1-12.4,0L426.4,266.7z"/>
	<path class="st1" d="M446,285.8c-11.4-12.4-2.9-43.9,18.4-31.6l0-17.7l10.3,0l0,51.3l-8.9,0l-0.2-2.5
		C459.9,289.2,451,290.6,446,285.8z M461.3,280.4c1.2-0.2,2.2-0.5,3.1-0.9l0-19c-7.7-2.6-13.2,1-12.5,10.1
		C451.3,277.5,454.2,282.5,461.3,280.4z"/>
</g>
<g>
	<g id="svg_136">
		<g id="svg_47">
			<path id="svg_48" class="st2" d="M222.3,182.2h8.1v2.1h-5.8v3h5.4v2.1h-5.4v5.1h-2.3V182.2L222.3,182.2z"/>
			<path id="svg_49" class="st2" d="M231.1,185.5h2.2v5.2c0,1.1,0.8,1.9,1.9,1.9s1.9-0.8,1.9-1.9v-5.2h2.2v8.9h-2l-0.2-0.9H237
				c-0.2,0.2-0.4,0.4-0.6,0.5c-0.4,0.3-1,0.5-1.9,0.5c-2,0-3.5-1.5-3.5-3.8L231.1,185.5L231.1,185.5L231.1,185.5z"/>
			<path id="svg_50" class="st2" d="M241,185.5h2l0.2,0.9h0.1c0.2-0.2,0.4-0.4,0.6-0.5c0.4-0.3,1-0.5,1.9-0.5c2,0,3.5,1.5,3.5,3.8
				v5.3h-2.2v-5.2c0-1.1-0.8-1.9-1.9-1.9s-1.9,0.8-1.9,1.9v5.2h-2.2L241,185.5L241,185.5L241,185.5z"/>
			<path id="svg_51" class="st2" d="M257.3,193.5L257.3,193.5c-0.3,0.2-0.5,0.4-0.7,0.6c-0.4,0.3-1.1,0.6-2,0.6
				c-2.3,0-4.1-1.8-4.1-4.6c0-2.8,1.8-4.6,4.1-4.6c0.9,0,1.5,0.3,1.9,0.6c0.2,0.2,0.5,0.4,0.6,0.6h0.1v-4.3h2.2v12.2h-1.9
				L257.3,193.5L257.3,193.5z M257.2,190c0-1.7-0.9-2.6-2.3-2.6c-1.3,0-2.3,0.9-2.3,2.6c0,1.7,0.9,2.6,2.3,2.6
				C256.2,192.6,257.2,191.6,257.2,190z"/>
			<path id="svg_52" class="st2" d="M266.6,193.5L266.6,193.5c-0.2,0.2-0.5,0.4-0.7,0.5c-0.4,0.3-1,0.5-1.9,0.5
				c-2,0-3.2-1.2-3.2-2.7c0-1.7,1.2-3,3.7-3h2v-0.2c0-1-0.6-1.7-1.6-1.7c-1,0-1.5,0.6-1.6,1.1h-2.2c0.2-1.5,1.4-2.9,3.8-2.9
				c2.3,0,3.8,1.5,3.8,3.4v5.7h-1.8L266.6,193.5L266.6,193.5z M266.4,190.6h-1.8c-1.1,0-1.7,0.4-1.7,1.1s0.5,1.1,1.4,1.1
				c1.3,0,2.1-0.8,2.1-2V190.6z"/>
			<path id="svg_53" class="st2" d="M278.5,191.1c-0.3,1.4-1.4,3.5-4.2,3.5c-2.6,0-4.5-1.9-4.5-4.6s1.9-4.6,4.5-4.6
				c2.8,0,3.9,2.1,4.2,3.4h-2.2c-0.2-0.5-0.7-1.4-2-1.4c-1.3,0-2.3,1-2.3,2.6s1,2.6,2.3,2.6s1.8-0.9,2-1.5L278.5,191.1L278.5,191.1
				L278.5,191.1z"/>
			<path id="svg_54" class="st2" d="M279.8,185.5h2.2v8.9h-2.2V185.5z"/>
			<path id="svg_55" class="st2" d="M292.3,190c0,2.7-1.9,4.6-4.5,4.6c-2.6,0-4.5-1.9-4.5-4.6s1.9-4.6,4.5-4.6
				C290.4,185.3,292.3,187.3,292.3,190z M290.1,190c0-1.6-1-2.6-2.3-2.6s-2.3,1-2.3,2.6s1,2.6,2.3,2.6
				C289.1,192.6,290.1,191.5,290.1,190z M288.6,181.8h2.3l-2.1,2.5h-1.8L288.6,181.8L288.6,181.8z"/>
			<path id="svg_56" class="st2" d="M293.6,185.5h2l0.2,0.9h0.1c0.2-0.2,0.4-0.4,0.6-0.5c0.4-0.3,1-0.5,1.9-0.5c2,0,3.5,1.5,3.5,3.8
				v5.3h-2.2v-5.2c0-1.1-0.8-1.9-1.9-1.9s-1.9,0.8-1.9,1.9v5.2h-2.2L293.6,185.5L293.6,185.5L293.6,185.5z"/>
			<g id="svg_57">
				<g id="svg_58">
					<circle id="svg_59" class="st2" cx="280.8" cy="182.9" r="1.3"/>
				</g>
			</g>
		</g>
		<g id="svg_21">
			<g id="svg_22">
				<path id="svg_23" class="st2" d="M225,201.5h-3.7v-2.2h9.6v2.2h-3.7v10H225L225,201.5L225,201.5L225,201.5z"/>
			</g>
			<g id="svg_24">
				<path id="svg_25" class="st2" d="M238.6,208.9c-0.2,0.7-1.3,2.8-4.1,2.8c-2.6,0-4.5-1.9-4.5-4.6s1.9-4.6,4.5-4.6
					c2.4,0,4.4,1.9,4.4,4.4c0,0.3,0,0.5,0,0.6l0,0.2h-6.6c0.2,1.2,1.1,2.1,2.3,2.1c1,0,1.7-0.6,1.8-1L238.6,208.9L238.6,208.9
					L238.6,208.9z M236.7,206.3c-0.2-1.1-0.9-2-2.2-2c-1.3,0-2.1,0.9-2.3,2H236.7z"/>
			</g>
			<g id="svg_26">
				<path id="svg_27" class="st2" d="M240.1,199.3h2.2v12.2h-2.2V199.3z"/>
			</g>
			<g id="svg_28">
				<path id="svg_29" class="st2" d="M252.3,208.9c-0.2,0.7-1.3,2.8-4.1,2.8c-2.6,0-4.5-1.9-4.5-4.6s1.9-4.6,4.5-4.6
					c2.4,0,4.4,1.9,4.4,4.4c0,0.3,0,0.5,0,0.6l0,0.2h-6.6c0.2,1.2,1.1,2.1,2.3,2.1c1,0,1.7-0.6,1.8-1L252.3,208.9L252.3,208.9
					L252.3,208.9z M250.3,206.3c-0.2-1.1-0.9-2-2.2-2c-1.3,0-2.1,0.9-2.3,2H250.3z"/>
			</g>
			<g id="svg_30">
				<path id="svg_31" class="st2" d="M254.5,204.7h-1.5v-2.1h1.5v-1.3c0-1.3,0.9-2.2,2.2-2.2h1.9v1.9h-1.3c-0.4,0-0.6,0.3-0.6,0.6v1
					h1.9v2.1h-1.9v6.8h-2.2L254.5,204.7L254.5,204.7z"/>
			</g>
			<g id="svg_32">
				<path id="svg_33" class="st2" d="M268,207.1c0,2.7-1.9,4.6-4.5,4.6c-2.6,0-4.5-1.9-4.5-4.6s1.9-4.6,4.5-4.6
					C266.1,202.4,268,204.4,268,207.1z M265.8,207.1c0-1.6-1-2.6-2.3-2.6s-2.3,1-2.3,2.6s1,2.6,2.3,2.6
					C264.8,209.7,265.8,208.6,265.8,207.1z"/>
			</g>
			<g id="svg_34">
				<path id="svg_35" class="st2" d="M269.3,202.6h2l0.2,0.9h0.1c0.2-0.2,0.4-0.4,0.6-0.5c0.4-0.3,1-0.5,1.9-0.5
					c2,0,3.5,1.5,3.5,3.8v5.3h-2.2v-5.2c0-1.1-0.8-1.9-1.9-1.9c-1.1,0-1.9,0.8-1.9,1.9v5.2h-2.2L269.3,202.6L269.3,202.6
					L269.3,202.6z"/>
			</g>
			<g id="svg_36">
				<path id="svg_37" class="st2" d="M291.4,208.2c-0.3,1.4-1.4,3.5-4.2,3.5c-2.6,0-4.5-1.9-4.5-4.6s1.9-4.6,4.5-4.6
					c2.8,0,3.9,2.1,4.2,3.4h-2.2c-0.2-0.5-0.7-1.4-2-1.4c-1.3,0-2.3,1-2.3,2.6s1,2.6,2.3,2.6s1.8-0.9,2-1.5L291.4,208.2L291.4,208.2
					z"/>
			</g>
			<g id="svg_38">
				<path id="svg_39" class="st2" d="M298,210.6L298,210.6c-0.2,0.2-0.5,0.4-0.7,0.5c-0.4,0.3-1,0.5-1.9,0.5c-2,0-3.2-1.2-3.2-2.7
					c0-1.7,1.2-3,3.7-3h2v-0.2c0-1-0.6-1.7-1.6-1.7c-1,0-1.5,0.6-1.6,1.1h-2.2c0.2-1.5,1.4-2.9,3.8-2.9c2.3,0,3.8,1.5,3.8,3.4v5.7
					h-1.8L298,210.6L298,210.6z M297.8,207.7H296c-1.1,0-1.7,0.4-1.7,1.1s0.5,1.1,1.4,1.1c1.3,0,2.1-0.8,2.1-2V207.7z"/>
			</g>
			<g id="svg_40">
				<path id="svg_41" class="st2" d="M279.2,202.6h2.2v8.9h-2.2V202.6z"/>
			</g>
			<g id="svg_42">
				<g id="svg_43">
					<circle id="svg_44" class="st2" cx="280.3" cy="200" r="1.3"/>
				</g>
			</g>
			<g id="svg_45">
				<polygon id="svg_46" class="st2" points="264.3,198.9 266.5,198.9 264.4,201.4 262.6,201.4 				"/>
			</g>
		</g>
		<g id="svg_2">
			<g id="svg_3">
				<g id="svg_4">
					<g id="svg_5">
						<g id="svg_6">
							<g id="svg_7">
								<circle id="svg_8" class="st2" cx="183.4" cy="184.3" r="4.9"/>
							</g>
						</g>
						<g id="svg_9">
							<g id="svg_10">
								<circle id="svg_11" class="st2" cx="195" cy="184.3" r="4.9"/>
							</g>
						</g>
						<g id="svg_12">
							<g id="svg_13">
								<circle id="svg_14" class="st2" cx="206.6" cy="184.3" r="4.9"/>
							</g>
						</g>
						<g id="svg_15">
							<g id="svg_16">
								<circle id="svg_17" class="st2" cx="195" cy="195.9" r="4.9"/>
							</g>
						</g>
						<g id="svg_18">
							<g id="svg_19">
								<circle id="svg_20" class="st2" cx="195" cy="207.5" r="4.9"/>
							</g>
						</g>
					</g>
				</g>
			</g>
		</g>
	</g>
</g>
<g class="st3">
	<g class="st4">
		<path class="st5" d="M67.9,247.6c1.6,2.3,2.4,5.1,2.4,8.4c0,4.6-1.6,8.2-4.9,10.7c-3.2,2.5-8,3.8-14.2,3.8H27.1v-53.2h22.8
			c5.7,0,10.2,1.2,13.3,3.7c3.1,2.5,4.7,5.8,4.7,10.1c0,2.6-0.6,5-1.7,7s-2.6,3.6-4.6,4.7C64.2,243.7,66.3,245.3,67.9,247.6z
			 M36.1,225v14.7h12.8c3.1,0,5.6-0.6,7.3-1.9c1.7-1.2,2.5-3.1,2.5-5.4c0-2.4-0.8-4.3-2.5-5.5c-1.7-1.2-4.1-1.9-7.3-1.9L36.1,225
			L36.1,225z M61.2,255c0-5.1-3.5-7.7-10.5-7.7H36.1v15.4h14.6C57.7,262.7,61.2,260.1,61.2,255z"/>
		<path class="st5" d="M79.9,217.2h9V262h25.4v8.4H79.9V217.2z"/>
		<path class="st5" d="M129.9,267.6c-4-2.4-7.1-5.6-9.4-9.8c-2.3-4.2-3.4-8.9-3.4-14s1.1-9.8,3.4-14s5.4-7.4,9.4-9.8
			c4-2.4,8.4-3.5,13.4-3.5s9.4,1.2,13.4,3.5c4,2.4,7.1,5.6,9.4,9.8c2.3,4.2,3.4,8.8,3.4,14.1c0,5.2-1.1,9.9-3.4,14.1
			c-2.3,4.2-5.4,7.4-9.4,9.8s-8.4,3.5-13.4,3.5C138.4,271.2,133.9,270,129.9,267.6z M152.1,260.1c2.6-1.6,4.6-3.8,6.1-6.7
			c1.5-2.9,2.2-6.1,2.2-9.6s-0.7-6.8-2.2-9.6c-1.5-2.9-3.5-5.1-6.1-6.7c-2.6-1.6-5.5-2.4-8.8-2.4c-3.2,0-6.2,0.8-8.8,2.4
			c-2.6,1.6-4.6,3.8-6.1,6.7s-2.2,6.1-2.2,9.6s0.7,6.8,2.2,9.6c1.5,2.9,3.5,5.1,6.1,6.7s5.5,2.4,8.8,2.4S149.5,261.7,152.1,260.1z"
			/>
		<path class="st5" d="M188.4,267.6c-4-2.4-7.1-5.6-9.4-9.8c-2.3-4.2-3.4-8.9-3.4-14s1.1-9.8,3.4-14c2.3-4.2,5.4-7.4,9.4-9.8
			c4-2.4,8.4-3.5,13.4-3.5s9.4,1.2,13.4,3.5c4,2.4,7.1,5.6,9.4,9.8c2.3,4.2,3.4,8.8,3.4,14.1c0,5.2-1.1,9.9-3.4,14.1
			c-2.3,4.2-5.4,7.4-9.4,9.8s-8.4,3.5-13.4,3.5C196.8,271.2,192.4,270,188.4,267.6z M210.5,260.1c2.6-1.6,4.6-3.8,6.1-6.7
			c1.5-2.9,2.2-6.1,2.2-9.6s-0.7-6.8-2.2-9.6c-1.5-2.9-3.5-5.1-6.1-6.7c-2.6-1.6-5.5-2.4-8.8-2.4c-3.2,0-6.2,0.8-8.8,2.4
			c-2.6,1.6-4.6,3.8-6.1,6.7s-2.2,6.1-2.2,9.6s0.7,6.8,2.2,9.6c1.5,2.9,3.5,5.1,6.1,6.7s5.5,2.4,8.8,2.4S208,261.7,210.5,260.1z"/>
	</g>
	<g class="st4">
		<path class="st5" d="M315.2,270.4l-0.1-35.3l-16,29.2h-4l-16-28.7v34.8h-8.6v-53.2h7.4l19.4,35.3l19-35.3h7.4l0.1,53.2H315.2z"/>
		<path class="st5" d="M346.2,267.6c-4-2.4-7.1-5.6-9.4-9.8c-2.3-4.2-3.4-8.9-3.4-14s1.1-9.8,3.4-14s5.4-7.4,9.4-9.8
			c4-2.4,8.4-3.5,13.4-3.5s9.4,1.2,13.4,3.5c4,2.4,7.1,5.6,9.4,9.8s3.4,8.8,3.4,14.1c0,5.2-1.1,9.9-3.4,14.1
			c-2.3,4.2-5.4,7.4-9.4,9.8s-8.5,3.5-13.4,3.5S350.2,270,346.2,267.6z M368.4,260.1c2.6-1.6,4.6-3.8,6.1-6.7
			c1.5-2.9,2.2-6.1,2.2-9.6s-0.7-6.8-2.2-9.6c-1.5-2.9-3.5-5.1-6.1-6.7c-2.6-1.6-5.5-2.4-8.8-2.4c-3.2,0-6.2,0.8-8.8,2.4
			c-2.6,1.6-4.6,3.8-6.1,6.7s-2.2,6.1-2.2,9.6s0.7,6.8,2.2,9.6c1.5,2.9,3.5,5.1,6.1,6.7s5.5,2.4,8.8,2.4S365.8,261.7,368.4,260.1z"
			/>
		<path class="st5" d="M395.4,217.2h21.3c5.2,0,9.8,1.1,13.8,3.3s7.2,5.3,9.4,9.3c2.2,4,3.3,8.7,3.3,13.9c0,5.3-1.1,9.9-3.3,13.9
			c-2.2,4-5.3,7.1-9.4,9.3c-4,2.2-8.6,3.3-13.8,3.3h-21.3V217.2z M416.2,262c3.6,0,6.7-0.7,9.4-2.2c2.7-1.5,4.8-3.6,6.3-6.4
			c1.5-2.8,2.2-6,2.2-9.6s-0.7-6.9-2.2-9.6c-1.5-2.8-3.5-4.9-6.3-6.4c-2.7-1.5-5.8-2.2-9.4-2.2h-11.8v36.5L416.2,262L416.2,262z"/>
	</g>
	<rect x="246" y="166.2" class="st6" width="8.5" height="156.6"/>
	<rect x="246" y="314.7" class="st6" width="216.1" height="8.2"/>
	<rect x="453.6" y="166.3" class="st6" width="8.5" height="156.6"/>
	<rect x="246" y="166.2" class="st6" width="216.1" height="8.2"/>
</g>
<g>
</g>
<g>
</g>
<g>
</g>
<g>
</g>
<g>
</g>
<g>
</g>
</svg>
