<?xml version="1.0" encoding="utf-8"?>
<!-- Generator: Adobe Illustrator 25.4.1, SVG Export Plug-In . SVG Version: 6.00 Build 0)  -->
<svg version="1.1" id="Layer_1" xmlns="http://www.w3.org/2000/svg" xmlns:xlink="http://www.w3.org/1999/xlink" x="0px" y="0px"
	 viewBox="0 0 1500 3008" style="enable-background:new 0 0 1500 3008;" xml:space="preserve">
<style type="text/css">
	.st0{fill:#03ABA8;}
</style>
<path class="st0" d="M832.4,2455.3c-1.8,0-3.5-0.5-4.9-1.8c-21.4-17.7-48.9-27.4-77.5-27.4s-56.1,9.8-77.5,27.4
	c-3,2.5-7.6,2.3-10.3-0.4c-2.7-2.7-2.5-6.9,0.4-9.3c24.2-19.9,55.2-30.9,87.4-30.9s63.2,11,87.4,30.9c3,2.5,3.2,6.6,0.4,9.3
	C836.4,2454.6,834.3,2455.3,832.4,2455.3L832.4,2455.3z"/>
<path class="st0" d="M844.7,2498.5c-2.4,0-4.7-1.1-6.1-2.9c-20.2-27.2-53.4-43.6-88.7-43.6s-68.5,16.3-88.7,43.6
	c-2.3,3.1-6.8,3.9-10.1,1.8c-3.3-2-4.2-6.2-2-9.1c22.9-30.9,60.6-49.4,100.8-49.4s77.9,18.5,100.8,49.4c2.3,3,1.3,7.1-2,9.1
	C847.5,2498.1,846.1,2498.5,844.7,2498.5L844.7,2498.5z"/>
<path class="st0" d="M727,2624.2c-1.8,0-3.8-0.6-5.2-1.9c-1.6-1.5-38.9-35.9-38.9-69.2c0-34.4,30.1-62.6,67.1-62.6
	s67.1,28,67.1,62.6c0,3.6-3.3,6.6-7.3,6.6s-7.3-3-7.3-6.6c0-27.2-23.6-49.4-52.6-49.4s-52.6,22.1-52.6,49.4
	c0,27.9,34.4,59.6,34.7,59.9c2.8,2.5,2.8,6.8-0.1,9.3C730.6,2623.5,728.8,2624.2,727,2624.2z"/>
<path class="st0" d="M773,2624.2c-17.5,0-58.2-30.2-62.1-63.8c-1.4-11.9,2.8-24.1,11.2-32.5c7.3-7.4,17.1-11.4,27.7-11.5h0.2
	c10.3,0,20,3.7,27.5,10.4c7.7,6.9,12,16.3,12,26.4v4.3c0,10.6,9.1,19.2,20.3,19.2s20.3-8.6,20.3-19.2v-1.5
	c0-41.1-32.9-75.2-74.9-77.8c-21.9-1.3-42.9,5.5-59.1,19.2c-16.8,14.2-26.5,34.5-26.5,55.8c0,17.5,6.5,34.4,18.4,47.9
	c2.5,2.8,2,7-1.1,9.3s-7.7,1.8-10.3-1.1c-13.9-15.7-21.5-35.7-21.5-56.2c0-24.9,11.3-48.7,31.1-65.5c19.2-16.3,44-24.3,70-22.8
	c49.6,3,88.5,43,88.5,91v1.5c0,17.8-15.6,32.4-34.9,32.4s-34.9-14.5-34.9-32.4v-4.3c0-6.5-2.7-12.6-7.7-17
	c-4.7-4.2-10.8-6.5-17.2-6.5c-0.1,0-0.1,0-0.2,0c-8.2,0-13.7,3.9-17,7.1c-5.7,5.7-8.5,14.1-7.6,22.3c3.3,27.4,38.1,52,47.6,52
	c4,0,7.3,3,7.3,6.6C780.2,2621.2,777,2624.2,773,2624.2L773,2624.2z"/>
<path class="st0" d="M800.1,2611.2c-26.1,0-57.9-28.8-57.9-62.6c0-3.6,3.3-6.6,7.3-6.6c4,0,7.3,3,7.3,6.6
	c0,26.1,24.3,49.4,43.3,49.4c4,0,7.3,3,7.3,6.6C807.4,2608.3,804,2611.2,800.1,2611.2z"/>
</svg>
