<?xml version="1.0" encoding="utf-8"?>
<!-- Generator: Adobe Illustrator 25.4.1, SVG Export Plug-In . SVG Version: 6.00 Build 0)  -->
<svg version="1.1" id="Layer_1" xmlns="http://www.w3.org/2000/svg" xmlns:xlink="http://www.w3.org/1999/xlink" x="0px" y="0px"
	 viewBox="0 0 1500 3008" style="enable-background:new 0 0 1500 3008;" xml:space="preserve">
<style type="text/css">
	.st0{fill:#DC9A56;}
</style>
<path class="st0" d="M843.8,743c-2,0-4-0.6-5.6-2c-24.4-20.1-55.7-31.2-88.2-31.2s-63.8,11.1-88.2,31.2c-3.4,2.8-8.6,2.6-11.7-0.5
	c-3.1-3.1-2.8-7.8,0.5-10.6c27.5-22.7,62.8-35.2,99.4-35.2s71.9,12.5,99.4,35.2c3.4,2.8,3.6,7.5,0.5,10.6
	C848.3,742.2,846,743,843.8,743L843.8,743z"/>
<path class="st0" d="M857.8,792.1c-2.7,0-5.3-1.2-6.9-3.3c-23-31-60.8-49.6-100.9-49.6s-77.9,18.5-100.9,49.6
	c-2.6,3.5-7.7,4.4-11.5,2.1c-3.8-2.3-4.8-7-2.3-10.4c26.1-35.2,69-56.2,114.7-56.2s88.6,21,114.7,56.2c2.6,3.4,1.5,8.1-2.3,10.4
	C861,791.7,859.4,792.1,857.8,792.1L857.8,792.1z"/>
<path class="st0" d="M723.8,935.1c-2.1,0-4.3-0.7-5.9-2.2c-1.8-1.7-44.3-40.9-44.3-78.7c0-39.2,34.3-71.2,76.4-71.2
	s76.4,31.9,76.4,71.2c0,4.1-3.7,7.5-8.3,7.5s-8.3-3.4-8.3-7.5c0-31-26.8-56.2-59.8-56.2s-59.8,25.2-59.8,56.2
	c0,31.7,39.1,67.8,39.5,68.2c3.2,2.9,3.2,7.7-0.1,10.6C728,934.4,725.9,935.1,723.8,935.1z"/>
<path class="st0" d="M776.2,935.1c-19.9,0-66.2-34.4-70.7-72.6c-1.6-13.5,3.2-27.4,12.7-37c8.3-8.4,19.5-13,31.5-13.1h0.2
	c11.7,0,22.8,4.2,31.3,11.8c8.8,7.9,13.7,18.6,13.7,30v4.9c0,12.1,10.4,21.9,23.1,21.9s23.1-9.8,23.1-21.9v-1.7
	c0-46.8-37.4-85.6-85.2-88.5c-24.9-1.5-48.8,6.3-67.2,21.9c-19.1,16.2-30.1,39.3-30.1,63.5c0,19.9,7.4,39.2,20.9,54.5
	c2.9,3.2,2.3,8-1.3,10.6s-8.8,2.1-11.7-1.2c-15.8-17.9-24.5-40.6-24.5-63.9c0-28.3,12.9-55.4,35.4-74.5
	c21.8-18.5,50.1-27.7,79.7-25.9c56.4,3.4,100.7,48.9,100.7,103.5v1.7c0,20.3-17.8,36.9-39.7,36.9s-39.7-16.5-39.7-36.9v-4.9
	c0-7.4-3.1-14.3-8.8-19.4c-5.3-4.8-12.3-7.4-19.6-7.4c-0.1,0-0.1,0-0.2,0c-9.3,0-15.6,4.4-19.3,8.1c-6.5,6.5-9.7,16-8.6,25.4
	c3.7,31.2,43.3,59.2,54.2,59.2c4.6,0,8.3,3.4,8.3,7.5S780.8,935.1,776.2,935.1L776.2,935.1z"/>
<path class="st0" d="M807,920.4c-29.7,0-65.9-32.8-65.9-71.2c0-4.1,3.7-7.5,8.3-7.5s8.3,3.4,8.3,7.5c0,29.7,27.6,56.2,49.3,56.2
	c4.6,0,8.3,3.4,8.3,7.5S811.5,920.4,807,920.4z"/>
</svg>
