<?xml version="1.0" encoding="utf-8"?>
<!-- Generator: Adobe Illustrator 25.4.1, SVG Export Plug-In . SVG Version: 6.00 Build 0)  -->
<svg version="1.1" id="Layer_1" xmlns="http://www.w3.org/2000/svg" xmlns:xlink="http://www.w3.org/1999/xlink" x="0px" y="0px"
	 viewBox="0 0 765 280" style="enable-background:new 0 0 765 280;" xml:space="preserve">
<style type="text/css">
	.st0{fill:#07A9E0;}
	.st1{fill:none;}
	.st2{fill:#A2DDF4;}
</style>
<g id="Layer_3">
	<g>
		<path class="st0" d="M281.2,181.1l-15.3-48.9c-1-3.1-2.8-9.7-5.4-20.4h-0.6c-2.1,8.9-3.8,15.7-5.3,20.6l-15.7,48.8h-14.6
			l-22.8-83.2h13.2c5.4,21,9.4,36.8,12.2,47.8c2.8,11,4.4,18.3,4.9,22.1h0.6c0.6-2.9,1.4-6.7,2.6-11.3c1.3-4.6,2.4-8.2,3.2-10.8
			l15.3-47.8h13.6l14.9,47.8c2.8,8.8,4.7,16,5.8,21.9h0.6c0.1-1.8,0.7-4.6,1.7-8.5c0.8-3.8,6.1-24.2,15.8-61.3h13.1l-23.1,83.2
			L281.2,181.1L281.2,181.1z"/>
		<path class="st0" d="M385.3,181.1l-2.5-11.8h-0.6c-4.2,5.3-8.3,8.8-12.4,10.6c-4.2,1.8-9.3,2.8-15.4,2.8c-8.2,0-14.7-2.1-19.4-6.4
			c-4.7-4.3-7.1-10.3-7.1-18.2c0-16.8,13.5-25.6,40.3-26.4l14.2-0.4v-5.1c0-6.5-1.4-11.4-4.2-14.4c-2.8-3.1-7.4-4.7-13.5-4.7
			c-6.9,0-14.7,2.1-23.6,6.4l-3.9-9.6c4.2-2.2,8.6-4,13.5-5.3c4.9-1.3,9.7-1.9,14.7-1.9c9.9,0,17.2,2.2,22.1,6.7s7.2,11.5,7.2,21.3
			v56.8h-9.4L385.3,181.1L385.3,181.1z M356.9,172.2c7.9,0,14-2.1,18.5-6.4c4.4-4.3,6.7-10.3,6.7-18.1v-7.5l-12.6,0.6
			c-10,0.4-17.2,1.9-21.7,4.7c-4.4,2.8-6.7,7.1-6.7,12.9c0,4.6,1.4,8.1,4.2,10.4C348.1,170.9,351.9,172.2,356.9,172.2z"/>
		<path class="st0" d="M458.7,96.4c3.8,0,6.9,0.3,10,1l-1.8,11.7c-3.5-0.7-6.5-1.1-9.2-1.1c-6.7,0-12.5,2.8-17.2,8.2
			c-4.7,5.4-7.2,12.2-7.2,20.4v44.7h-12.6V98H431l1.4,15.4h0.6c3.1-5.4,6.8-9.6,11.1-12.5C448.7,97.7,453.4,96.4,458.7,96.4z"/>
		<path class="st0" d="M540.9,170h-0.7c-5.8,8.5-14.6,12.6-26.1,12.6c-10.8,0-19.3-3.8-25.4-11.1c-6.1-7.5-9-18.1-9-31.8
			s3.1-24.4,9.2-31.9c6.1-7.5,14.6-11.4,25.4-11.4c11.3,0,20,4.2,26,12.4h1l-0.6-6l-0.3-5.8V63H553v118.2h-10.4L540.9,170z
			 M515.6,172.1c8.6,0,14.9-2.4,18.8-7.1c3.9-4.7,5.8-12.2,5.8-22.6v-2.6c0-11.8-1.9-20.3-5.8-25.3c-3.9-5-10.1-7.5-18.8-7.5
			c-7.4,0-13.1,2.9-16.9,8.6c-3.9,5.7-5.8,13.9-5.8,24.3c0,10.7,1.9,18.6,5.8,24C502.4,169.3,508.1,172.1,515.6,172.1z"/>
		<path class="st0" d="M614.7,182.6c-12.4,0-22.1-3.8-29.2-11.3c-7.1-7.5-10.7-17.9-10.7-31.3c0-13.5,3.3-24,9.9-31.9
			c6.5-7.9,15.4-11.8,26.7-11.8c10.4,0,18.8,3.5,24.7,10.3c6.1,6.8,9.2,16,9.2,27.2v7.9h-57.4c0.3,9.7,2.8,17.2,7.4,22.2
			c4.7,5,11.3,7.6,19.7,7.6c9,0,17.8-1.8,26.5-5.6v11.3c-4.4,1.9-8.6,3.3-12.6,4.2C625.1,182.2,620.4,182.6,614.7,182.6z
			 M611.3,106.9c-6.7,0-12.1,2.2-16,6.5c-4,4.3-6.3,10.4-7.1,18.1h43.5c0-7.9-1.8-14-5.3-18.3C622.9,109,617.9,106.9,611.3,106.9z"
			/>
		<path class="st0" d="M723.8,181.1v-53.9c0-6.8-1.5-11.8-4.6-15.1c-3.1-3.3-7.9-5-14.4-5c-8.8,0-15.1,2.4-19.2,7.1
			c-4,4.7-6.1,12.5-6.1,23.3v43.6h-12.6V97.9h10.3l2.1,11.4h0.6c2.6-4.2,6.3-7.2,10.8-9.6c4.7-2.2,9.9-3.3,15.6-3.3
			c10,0,17.6,2.4,22.6,7.2c5,4.9,7.6,12.6,7.6,23.2v54.3H723.8L723.8,181.1z"/>
	</g>
</g>
<g>
	<path class="st1" d="M151.4,160.9l0.2,0c0.3-0.2,0.5-0.5,0.8-0.7L151.4,160.9z"/>
	<path class="st2" d="M164.2,73.7l-66-19.8c-1-0.2-1.9-0.2-2.8,0l-66,19.8c-2.1,0.6-3.5,2.5-3.5,4.7v72.6
		c-1,32.4,50.1,62.5,68.9,70.5c1.3,0.6,2.8,0.7,4.1,0c0.7-0.2,17.1-7.8,33.9-19.8c9.9-7.2,17.8-14.6,23.7-22
		c7.5-9.6,11.4-19.3,11.4-28.8V78.4C167.7,76.2,166.3,74.3,164.2,73.7z M163.8,159.8l-6,13.2l-32.3,16.8l-35.3,20L61.7,195l-3-15.7
		L87,167l-16.5-29.9c-2.4-4.4-3.6-9.3-3.6-14.2c0-16.5,13.4-30,30-30c16.5,0,30,13.4,30,30c0,5-1.2,9.9-3.6,14.2l-10.3,18.6
		l41.1-17.9l9.8,13.1l-11.5,9.2c-0.2,0.2-0.5,0.5-0.8,0.7L163.8,159.8z"/>
	<ellipse transform="matrix(0.3827 -0.9239 0.9239 0.3827 -53.6731 165.3008)" class="st2" cx="96.9" cy="122.8" rx="15" ry="15"/>
	<path class="st2" d="M152.3,160.1l11.5-9.2l-9.8-13.1l-41.1,17.9l-14.4,26.1c-0.3,0.6-1,1-1.6,1s-1.3-0.4-1.6-1L87,167l-28.3,12.3
		l3,15.7l28.5,14.7l35.3-20l32.3-16.8l6-13.2l-12.2,1.1l-0.2,0L152.3,160.1z"/>
</g>
</svg>
