<?xml version="1.0" encoding="utf-8"?>
<!-- Generator: Adobe Illustrator 25.4.1, SVG Export Plug-In . SVG Version: 6.00 Build 0)  -->
<svg version="1.1" id="Layer_1" xmlns="http://www.w3.org/2000/svg" xmlns:xlink="http://www.w3.org/1999/xlink" x="0px" y="0px"
	 viewBox="0 0 512 512" style="enable-background:new 0 0 512 512;" xml:space="preserve">
<style type="text/css">
	.st0{fill:#00BFEF;}
</style>
<g>
	<path class="st0" d="M182.6,266.1h-78.2v74H179c11.2-0.3,31.9-4,31.9-36C210.9,265.7,182.6,266.1,182.6,266.1z"/>
	<path class="st0" d="M201.6,190.5c0-28.8-19-28.8-19-28.8h-10.1h-68.1v61.8h73.3C190.4,223.5,201.6,219.3,201.6,190.5z"/>
	<path class="st0" d="M382.9,223.4c-41.5,0-47.3,42.7-47.3,42.7h88.2C423.8,266.1,424.3,223.5,382.9,223.4z"/>
	<path class="st0" d="M506-28H17.2C-5.6-28-24-9.9-24,12.4v480c0,22.5,18.4,40.5,41.2,40.5h488.7c22.8,0,41.2-18.1,41.2-40.4V12.4
		C547.1-9.9,528.7-28,506-28z M324,128.8h110.8v34.1H324V128.8z M267.9,307.6c0,84.5-85.3,81.7-85.3,81.7h-78.2h-2.3H42.8V112.5
		h59.4h2.3h78.2c42.5,0,76,24.2,76,73.7c0,49.6-41,52.7-41,52.7C271.7,238.9,268,307.6,267.9,307.6z M475.2,303H336
		c0,51.5,47.3,48.2,47.3,48.2c44.7,0,43.1-29.8,43.1-29.8h47.3c0,79-91.9,73.6-91.9,73.6c-110.3,0-103.2-105.8-103.2-105.8
		s-0.1-106.3,103.2-106.3C490.5,182.9,475.3,303.1,475.2,303z"/>
</g>
</svg>
