<?xml version="1.0" encoding="utf-8"?>
<!-- Generator: Adobe Illustrator 25.4.1, SVG Export Plug-In . SVG Version: 6.00 Build 0)  -->
<svg version="1.1" id="Layer_1" xmlns="http://www.w3.org/2000/svg" xmlns:xlink="http://www.w3.org/1999/xlink" x="0px" y="0px"
	 viewBox="0 0 512 512" style="enable-background:new 0 0 512 512;" xml:space="preserve">
<style type="text/css">
	.st0{fill:#EF0060;}
</style>
<g>
	<path class="st0" d="M218.2,286.1c15.1-10.4,34.2-20.9,56.9-28.2c-4.1-9.3-8.3-18.1-12.5-26.5c-16.2,5.5-33.4,10-51.6,13.3
		c-31.9,5.8-58.9,6.8-73.7,6.8c-0.2,0-0.5,0-0.7,0c-0.1,1.7-0.2,3.3-0.1,5c0,29.9,10.8,57.3,28.8,78.5
		C175,323,192.8,303.6,218.2,286.1z"/>
	<path class="st0" d="M497.5-20h-470C5.7-20-12-2.2-12,19.7v471.5c0,22.1,17.7,39.8,39.6,39.8h469.9c21.9,0,39.6-17.8,39.6-39.7
		V19.7C537.1-2.2,519.4-20,497.5-20z M258,401.3c-79.8,0-144.8-65-144.8-144.8s65-144.8,144.8-144.8s144.8,65,144.8,144.8
		S337.8,401.3,258,401.3z"/>
	<path class="st0" d="M306.8,273.8c9.3,24.8,17.4,51.9,22.8,80.8c25.2-18.4,43.1-46.3,48.3-78.4
		C353.5,270.7,329.8,269.9,306.8,273.8z"/>
	<path class="st0" d="M284.6,222.9c4.5,9.2,9,18.9,13.4,29.1c24.1-4.7,51.4-5.4,81.5,0.8c-0.8-27.5-10.8-52.8-27.1-72.8
		C333.6,197.2,310.8,211.6,284.6,222.9z"/>
	<path class="st0" d="M273.9,202.2c22-9.2,43.6-21.8,62.2-38.8c-21.2-17.7-48.4-28.5-78.1-28.5c-8.6,0-17.1,1-25.3,2.7
		C242.2,150.3,257.7,172.6,273.9,202.2z"/>
	<path class="st0" d="M283.8,279.3c-17.8,5.6-35.1,14.1-51.8,25.5c-24.6,16.8-41.6,36-50,46.5c20.9,16.7,47.3,26.8,76,26.7
		c17.9,0,34.9-3.9,50.2-10.9C303,335.7,294.1,306.1,283.8,279.3z"/>
	<path class="st0" d="M251.6,210.5c-18.3-32.9-35.3-56.1-42.4-65.3c-34.4,15.2-60.5,45.8-69.3,83C161.2,228,205.7,225.4,251.6,210.5
		z"/>
</g>
</svg>
