<?xml version="1.0" encoding="utf-8"?>
<!-- Generator: Adobe Illustrator 25.4.1, SVG Export Plug-In . SVG Version: 6.00 Build 0)  -->
<svg version="1.1" id="Layer_1" xmlns="http://www.w3.org/2000/svg" xmlns:xlink="http://www.w3.org/1999/xlink" x="0px" y="0px"
	 viewBox="0 0 512 512" style="enable-background:new 0 0 512 512;" xml:space="preserve">
<style type="text/css">
	.st0{fill:url(#SVGID_1_);}
	.st1{fill:url(#SVGID_00000057839032188726731070000018078510862540003757_);}
	.st2{fill:url(#SVGID_00000050632322181618867310000004675562645608460932_);}
	.st3{display:none;fill:#FFFFFF;}
</style>
<linearGradient id="SVGID_1_" gradientUnits="userSpaceOnUse" x1="8.1252" y1="6.5461" x2="498.5128" y2="496.9337" gradientTransform="matrix(1 0 0 -1 0 514)">
	<stop  offset="0" style="stop-color:#FFC107"/>
	<stop  offset="0.5" style="stop-color:#F44336"/>
	<stop  offset="1" style="stop-color:#9C27B0"/>
</linearGradient>
<path class="st0" d="M258.5,180.9c-42,0-76.2,34.2-76.2,76.2c0,42,34.2,76.2,76.2,76.2s76.2-34.2,76.2-76.2
	C334.7,215.1,300.5,180.9,258.5,180.9z M258.5,316.4c-32.7,0-59.3-26.6-59.3-59.3c0-32.7,26.6-59.3,59.3-59.3
	c32.7,0,59.3,26.6,59.3,59.3C317.7,289.8,291.1,316.4,258.5,316.4z"/>
<linearGradient id="SVGID_00000070828676356359760330000007472410608016571282_" gradientUnits="userSpaceOnUse" x1="6.3107" y1="8.3607" x2="496.6982" y2="498.7482" gradientTransform="matrix(1 0 0 -1 0 514)">
	<stop  offset="0" style="stop-color:#FFC107"/>
	<stop  offset="0.5" style="stop-color:#F44336"/>
	<stop  offset="1" style="stop-color:#9C27B0"/>
</linearGradient>
<path style="fill:url(#SVGID_00000070828676356359760330000007472410608016571282_);" d="M475.1,0H36.9C16.5,0,0,16.5,0,36.9V475
	c0,20.5,16.5,37,36.9,37H475c20.4,0,36.9-16.5,36.9-36.9V36.9C512,16.5,495.5,0,475.1,0z M403,358.8c0,23.4-19,42.3-42.3,42.3H156.2
	c-23.4,0-42.3-19-42.3-42.3V154.4c0-23.4,19-42.3,42.3-42.3h204.4c23.4,0,42.3,19,42.3,42.3V358.8z"/>
<linearGradient id="SVGID_00000157992814532928336450000014749122065127996042_" gradientUnits="userSpaceOnUse" x1="8.125" y1="6.5464" x2="498.5125" y2="496.9339" gradientTransform="matrix(1 0 0 -1 0 514)">
	<stop  offset="0" style="stop-color:#FFC107"/>
	<stop  offset="0.5" style="stop-color:#F44336"/>
	<stop  offset="1" style="stop-color:#9C27B0"/>
</linearGradient>
<circle style="fill:url(#SVGID_00000157992814532928336450000014749122065127996042_);" cx="351.6" cy="164" r="16.9"/>
<circle class="st3" cx="258.5" cy="257.1" r="59.3"/>
<path class="st3" d="M360.7,112H156.2c-23.4,0-42.3,19-42.3,42.3v204.4c0,23.4,19,42.3,42.3,42.3h204.4c23.4,0,42.3-19,42.3-42.3
	V154.4C403,131,384,112,360.7,112z M258.5,333.4c-42,0-76.2-34.2-76.2-76.2c0-42,34.2-76.2,76.2-76.2s76.2,34.2,76.2,76.2
	C334.7,299.1,300.5,333.4,258.5,333.4z M351.6,180.9c-9.3,0-16.9-7.6-16.9-16.9s7.6-16.9,16.9-16.9s16.9,7.6,16.9,16.9
	S360.9,180.9,351.6,180.9z"/>
</svg>
