<?xml version="1.0" encoding="utf-8"?>
<!-- Generator: Adobe Illustrator 25.4.1, SVG Export Plug-In . SVG Version: 6.00 Build 0)  -->
<svg version="1.1" id="Layer_1" xmlns="http://www.w3.org/2000/svg" xmlns:xlink="http://www.w3.org/1999/xlink" x="0px" y="0px"
	 viewBox="0 0 512 512" style="enable-background:new 0 0 512 512;" xml:space="preserve">
<style type="text/css">
	.st0{fill:#EF0060;}
	.st1{display:none;fill:#FFFFFF;}
</style>
<path class="st0" d="M258.5,180.9c-42,0-76.2,34.2-76.2,76.2s34.2,76.2,76.2,76.2s76.2-34.2,76.2-76.2S300.5,180.9,258.5,180.9z
	 M258.5,316.4c-32.7,0-59.3-26.6-59.3-59.3s26.6-59.3,59.3-59.3s59.3,26.6,59.3,59.3C317.7,289.8,291.1,316.4,258.5,316.4z"/>
<path class="st0" d="M497.5-20h-470C5.7-20-12-2.2-12,19.7v471.5c0,22.1,17.7,39.8,39.6,39.8h469.9c21.9,0,39.6-17.8,39.6-39.7V19.7
	C537.1-2.2,519.4-20,497.5-20z M403,358.8c0,23.4-19,42.3-42.3,42.3H156.2c-23.4,0-42.3-19-42.3-42.3V154.4
	c0-23.4,19-42.3,42.3-42.3h204.4c23.4,0,42.3,19,42.3,42.3v204.4H403z"/>
<circle class="st0" cx="351.6" cy="164" r="16.9"/>
<circle class="st1" cx="258.5" cy="257.1" r="59.3"/>
<path class="st1" d="M360.7,112H156.2c-23.4,0-42.3,19-42.3,42.3v204.4c0,23.4,19,42.3,42.3,42.3h204.4c23.4,0,42.3-19,42.3-42.3
	V154.4C403,131,384,112,360.7,112z M258.5,333.4c-42,0-76.2-34.2-76.2-76.2s34.2-76.2,76.2-76.2s76.2,34.2,76.2,76.2
	C334.7,299.1,300.5,333.4,258.5,333.4z M351.6,180.9c-9.3,0-16.9-7.6-16.9-16.9s7.6-16.9,16.9-16.9s16.9,7.6,16.9,16.9
	S360.9,180.9,351.6,180.9z"/>
</svg>
