<?xml version="1.0" encoding="utf-8"?>
<!-- Generator: Adobe Illustrator 25.4.1, SVG Export Plug-In . SVG Version: 6.00 Build 0)  -->
<svg version="1.1" id="Layer_1" xmlns="http://www.w3.org/2000/svg" xmlns:xlink="http://www.w3.org/1999/xlink" x="0px" y="0px"
	 viewBox="0 0 512 512" style="enable-background:new 0 0 512 512;" xml:space="preserve">
<style type="text/css">
	.st0{fill:url(#SVGID_1_);}
	.st1{fill:url(#SVGID_00000026133698725676671480000002240597141123624638_);}
	.st2{fill:url(#SVGID_00000049926158721469587650000004904659636470720400_);}
</style>
<g>
	<linearGradient id="SVGID_1_" gradientUnits="userSpaceOnUse" x1="204.65" y1="310.95" x2="312.35" y2="203.25">
		<stop  offset="0.3171" style="stop-color:#E13F7B"/>
		<stop  offset="1" style="stop-color:#8134AF"/>
		<stop  offset="1" style="stop-color:#515BD4"/>
	</linearGradient>
	<path class="st0" d="M258.5,180.9c-42,0-76.2,34.2-76.2,76.2s34.2,76.2,76.2,76.2s76.2-34.2,76.2-76.2S300.5,180.9,258.5,180.9z
		 M258.5,316.4c-32.7,0-59.3-26.6-59.3-59.3s26.6-59.3,59.3-59.3s59.3,26.6,59.3,59.3C317.7,289.8,291.1,316.4,258.5,316.4z"/>
	
		<linearGradient id="SVGID_00000151529023827892934540000015784648075986954173_" gradientUnits="userSpaceOnUse" x1="-0.8782" y1="518.9219" x2="525.9594" y2="-7.9157">
		<stop  offset="0" style="stop-color:#F58529"/>
		<stop  offset="0" style="stop-color:#FEDA77"/>
		<stop  offset="0.5" style="stop-color:#E13F7B"/>
		<stop  offset="0.75" style="stop-color:#8134AF"/>
		<stop  offset="1" style="stop-color:#515BD4"/>
	</linearGradient>
	<path style="fill:url(#SVGID_00000151529023827892934540000015784648075986954173_);" d="M497.5-20h-470C5.7-20-12-2.2-12,19.7
		v471.5c0,22.1,17.7,39.8,39.6,39.8h469.9c21.9,0,39.6-17.8,39.6-39.7V19.7C537.1-2.2,519.4-20,497.5-20z M403,358.8
		c0,23.4-19,42.3-42.3,42.3H156.2c-23.4,0-42.3-19-42.3-42.3V154.4c0-23.4,19-42.3,42.3-42.3h204.4c23.4,0,42.3,19,42.3,42.3v204.4
		H403z"/>
	
		<linearGradient id="SVGID_00000152264364809882027250000017458945852973442489_" gradientUnits="userSpaceOnUse" x1="339.6499" y1="175.9501" x2="363.5501" y2="152.0499">
		<stop  offset="0" style="stop-color:#E13F7B"/>
		<stop  offset="1" style="stop-color:#8134AF"/>
	</linearGradient>
	<circle style="fill:url(#SVGID_00000152264364809882027250000017458945852973442489_);" cx="351.6" cy="164" r="16.9"/>
</g>
</svg>
