<?xml version="1.0" encoding="utf-8"?>
<!-- Generator: Adobe Illustrator 25.4.1, SVG Export Plug-In . SVG Version: 6.00 Build 0)  -->
<svg version="1.1" id="Layer_1" xmlns="http://www.w3.org/2000/svg" xmlns:xlink="http://www.w3.org/1999/xlink" x="0px" y="0px"
	 viewBox="0 0 512 512" style="enable-background:new 0 0 512 512;" xml:space="preserve">
<style type="text/css">
	.st0{fill:#0A66C2;}
</style>
<path class="st0" d="M506-28H17.2C-5.6-28-24-9.9-24,12.4v480c0,22.5,18.4,40.5,41.2,40.5h488.7c22.8,0,41.2-18.1,41.2-40.4V12.4
	C547.1-9.9,528.7-28,506-28z M181.6,387h-62.3V199.4h62.3V387z M150.4,173.8H150c-20.9,0-34.5-14.4-34.5-32.4
	c0-18.4,13.9-32.4,35.3-32.4s34.5,14,34.9,32.4C185.7,159.4,172.2,173.8,150.4,173.8z M406.4,387h-62.3V286.7
	c0-25.2-9-42.4-31.6-42.4c-17.2,0-27.5,11.6-32,22.8c-1.6,4-2.1,9.6-2.1,15.2V387h-62.3c0,0,0.8-170,0-187.6h62.3V226
	c8.3-12.8,23.1-31,56.2-31c41,0,71.8,26.8,71.8,84.4L406.4,387L406.4,387z"/>
</svg>
