<?xml version="1.0" encoding="utf-8"?>
<!-- Generator: Adobe Illustrator 25.4.1, SVG Export Plug-In . SVG Version: 6.00 Build 0)  -->
<svg version="1.1" id="Layer_1" xmlns="http://www.w3.org/2000/svg" xmlns:xlink="http://www.w3.org/1999/xlink" x="0px" y="0px"
	 viewBox="0 0 500 500" style="enable-background:new 0 0 500 500;" xml:space="preserve">
<style type="text/css">
	.st0{fill:#4291CE;}
	.st1{display:none;fill:#00ABA8;}
	.st2{fill:#00ABA8;}
</style>
<g>
	<path class="st0" d="M500,0H0v500h500V0z M465,35v430H35V35H465z"/>
	<path class="st1" d="M100.1,231.3c-2.9,0-5.3,2.4-5.3,5.3v26.9c0,2.9,2.4,5.3,5.3,5.3h131.2v-37.5H100.1z"/>
	<path class="st1" d="M399.9,231.3H268.7v37.5h131.2c2.9,0,5.3-2.4,5.3-5.3v-26.9C405.2,233.6,402.8,231.3,399.9,231.3z"/>
	<path class="st1" d="M268.7,100.1c0-2.9-2.4-5.3-5.3-5.3h-26.9c-2.9,0-5.3,2.4-5.3,5.3v131.2v37.5v131.2c0,2.9,2.4,5.3,5.3,5.3
		h26.9c2.9,0,5.3-2.4,5.3-5.3V268.7v-37.5V100.1z"/>
</g>
<rect x="92.7" y="242.5" transform="matrix(0.7071 -0.7071 0.7071 0.7071 -118.6311 244.0431)" class="st0" width="285.2" height="45.4"/>
<path class="st2" d="M166.1,155.1"/>
<polyline class="st0" points="207.1,124.7 376.4,124.7 376.4,284.6 "/>
</svg>
