<?xml version="1.0" encoding="utf-8"?>
<!-- Generator: Adobe Illustrator 25.4.1, SVG Export Plug-In . SVG Version: 6.00 Build 0)  -->
<svg version="1.1" id="Layer_1" xmlns="http://www.w3.org/2000/svg" xmlns:xlink="http://www.w3.org/1999/xlink" x="0px" y="0px"
	 viewBox="0 0 500 500" style="enable-background:new 0 0 500 500;" xml:space="preserve">
<style type="text/css">
	.st0{fill:#00ABA8;}
</style>
<g>
	<g>
		<path class="st0" d="M46.9,253.6c1.8,2.6,2.8,5.9,2.8,9.7c0,5.3-1.8,9.4-5.6,12.3c-3.7,2.9-9.2,4.4-16.3,4.4H0v-61.1h26.2
			c6.6,0,11.7,1.4,15.3,4.3c3.6,2.9,5.4,6.7,5.4,11.6c0,3-0.7,5.7-2,8c-1.3,2.3-3,4.1-5.3,5.4C42.6,249.1,45.1,250.9,46.9,253.6z
			 M10.3,227.6v16.9h14.7c3.6,0,6.4-0.7,8.4-2.2c2-1.4,2.9-3.6,2.9-6.2c0-2.8-0.9-4.9-2.9-6.3s-4.7-2.2-8.4-2.2L10.3,227.6
			L10.3,227.6z M39.2,262.1c0-5.9-4-8.9-12.1-8.9H10.3v17.7h16.8C35.2,270.9,39.2,267.9,39.2,262.1z"/>
		<path class="st0" d="M60.7,218.6H71v51.5h29.2v9.7H60.7V218.6z"/>
		<path class="st0" d="M118.2,276.6c-4.6-2.8-8.2-6.4-10.8-11.3c-2.6-4.8-3.9-10.2-3.9-16.1s1.3-11.3,3.9-16.1
			c2.6-4.8,6.2-8.5,10.8-11.3c4.6-2.8,9.7-4,15.4-4s10.8,1.4,15.4,4c4.6,2.8,8.2,6.4,10.8,11.3c2.6,4.8,3.9,10.1,3.9,16.2
			c0,6-1.3,11.4-3.9,16.2c-2.6,4.8-6.2,8.5-10.8,11.3c-4.6,2.8-9.7,4-15.4,4C127.9,280.7,122.8,279.3,118.2,276.6z M143.7,267.9
			c3-1.8,5.3-4.4,7-7.7c1.7-3.3,2.5-7,2.5-11c0-4-0.8-7.8-2.5-11c-1.7-3.3-4-5.9-7-7.7s-6.3-2.8-10.1-2.8c-3.7,0-7.1,0.9-10.1,2.8
			c-3,1.8-5.3,4.4-7,7.7c-1.7,3.3-2.5,7-2.5,11c0,4,0.8,7.8,2.5,11c1.7,3.3,4,5.9,7,7.7c3,1.8,6.3,2.8,10.1,2.8
			S140.7,269.8,143.7,267.9z"/>
		<path class="st0" d="M185.4,276.6c-4.6-2.8-8.2-6.4-10.8-11.3c-2.6-4.8-3.9-10.2-3.9-16.1s1.3-11.3,3.9-16.1
			c2.6-4.8,6.2-8.5,10.8-11.3c4.6-2.8,9.7-4,15.4-4s10.8,1.4,15.4,4c4.6,2.8,8.2,6.4,10.8,11.3c2.6,4.8,3.9,10.1,3.9,16.2
			c0,6-1.3,11.4-3.9,16.2c-2.6,4.8-6.2,8.5-10.8,11.3c-4.6,2.8-9.7,4-15.4,4C195.1,280.7,190,279.3,185.4,276.6z M210.8,267.9
			c3-1.8,5.3-4.4,7-7.7c1.7-3.3,2.5-7,2.5-11c0-4-0.8-7.8-2.5-11c-1.7-3.3-4-5.9-7-7.7c-3-1.8-6.3-2.8-10.1-2.8
			c-3.7,0-7.1,0.9-10.1,2.8c-3,1.8-5.3,4.4-7,7.7c-1.7,3.3-2.5,7-2.5,11c0,4,0.8,7.8,2.5,11c1.7,3.3,4,5.9,7,7.7
			c3,1.8,6.3,2.8,10.1,2.8C204.5,270.7,207.9,269.8,210.8,267.9z"/>
	</g>
	<g>
		<path class="st0" d="M331.1,279.8l-0.1-40.6l-18.4,33.6H308l-18.4-33v40h-9.9v-61.1h8.5l22.3,40.6l21.8-40.6h8.5l0.1,61.1H331.1z"
			/>
		<path class="st0" d="M366.8,276.6c-4.6-2.8-8.2-6.4-10.8-11.3c-2.6-4.8-3.9-10.2-3.9-16.1s1.3-11.3,3.9-16.1
			c2.6-4.8,6.2-8.5,10.8-11.3c4.6-2.8,9.7-4,15.4-4s10.8,1.4,15.4,4c4.6,2.8,8.2,6.4,10.8,11.3c2.6,4.8,3.9,10.1,3.9,16.2
			c0,6-1.3,11.4-3.9,16.2c-2.6,4.8-6.2,8.5-10.8,11.3c-4.6,2.8-9.8,4-15.4,4S371.4,279.3,366.8,276.6z M392.3,267.9
			c3-1.8,5.3-4.4,7-7.7c1.7-3.3,2.5-7,2.5-11c0-4-0.8-7.8-2.5-11c-1.7-3.3-4-5.9-7-7.7c-3-1.8-6.3-2.8-10.1-2.8
			c-3.7,0-7.1,0.9-10.1,2.8c-3,1.8-5.3,4.4-7,7.7c-1.7,3.3-2.5,7-2.5,11c0,4,0.8,7.8,2.5,11c1.7,3.3,4,5.9,7,7.7
			c3,1.8,6.3,2.8,10.1,2.8S389.3,269.8,392.3,267.9z"/>
		<path class="st0" d="M423.3,218.6h24.5c6,0,11.3,1.3,15.9,3.8c4.6,2.5,8.3,6.1,10.8,10.7c2.5,4.6,3.8,10,3.8,16
			c0,6.1-1.3,11.4-3.8,16c-2.5,4.6-6.1,8.2-10.8,10.7c-4.6,2.5-9.9,3.8-15.9,3.8h-24.5V218.6z M447.2,270.1c4.1,0,7.7-0.8,10.8-2.5
			c3.1-1.7,5.5-4.1,7.2-7.4c1.7-3.2,2.5-6.9,2.5-11s-0.8-7.9-2.5-11c-1.7-3.2-4-5.6-7.2-7.4c-3.1-1.7-6.7-2.5-10.8-2.5h-13.6v42
			L447.2,270.1L447.2,270.1z"/>
	</g>
	<rect x="251.6" y="160" class="st0" width="9.8" height="180"/>
	<rect x="251.6" y="330.7" class="st0" width="248.4" height="9.4"/>
	<rect x="490.2" y="160" class="st0" width="9.8" height="180"/>
	<rect x="251.6" y="159.9" class="st0" width="248.4" height="9.4"/>
</g>
</svg>
