<?xml version="1.0" encoding="utf-8"?>
<!-- Generator: Adobe Illustrator 25.4.1, SVG Export Plug-In . SVG Version: 6.00 Build 0)  -->
<svg version="1.1" id="Layer_1" xmlns="http://www.w3.org/2000/svg" xmlns:xlink="http://www.w3.org/1999/xlink" x="0px" y="0px"
	 viewBox="0 0 500 500" style="enable-background:new 0 0 500 500;" xml:space="preserve">
<style type="text/css">
	.st0{fill:#00ABA8;}
</style>
<g>
	<g>
		<path class="st0" d="M76.6,253.1c1.6,2.3,2.4,5.1,2.4,8.4c0,4.6-1.6,8.2-4.9,10.7c-3.2,2.5-8,3.8-14.2,3.8H35.8v-53.2h22.8
			c5.7,0,10.2,1.2,13.3,3.7c3.1,2.5,4.7,5.8,4.7,10.1c0,2.6-0.6,5-1.7,7c-1.1,2-2.6,3.6-4.6,4.7C72.9,249.2,75,250.8,76.6,253.1z
			 M44.8,230.5v14.7h12.8c3.1,0,5.6-0.6,7.3-1.9c1.7-1.2,2.5-3.1,2.5-5.4c0-2.4-0.8-4.3-2.5-5.5c-1.7-1.2-4.1-1.9-7.3-1.9H44.8z
			 M69.9,260.5c0-5.1-3.5-7.7-10.5-7.7H44.8v15.4h14.6C66.4,268.2,69.9,265.6,69.9,260.5z"/>
		<path class="st0" d="M88.6,222.7h9v44.8h25.4v8.4H88.6V222.7z"/>
		<path class="st0" d="M138.6,273.1c-4-2.4-7.1-5.6-9.4-9.8c-2.3-4.2-3.4-8.9-3.4-14s1.1-9.8,3.4-14c2.3-4.2,5.4-7.4,9.4-9.8
			c4-2.4,8.4-3.5,13.4-3.5c5,0,9.4,1.2,13.4,3.5c4,2.4,7.1,5.6,9.4,9.8c2.3,4.2,3.4,8.8,3.4,14.1c0,5.2-1.1,9.9-3.4,14.1
			c-2.3,4.2-5.4,7.4-9.4,9.8c-4,2.4-8.4,3.5-13.4,3.5C147.1,276.7,142.6,275.5,138.6,273.1z M160.8,265.6c2.6-1.6,4.6-3.8,6.1-6.7
			c1.5-2.9,2.2-6.1,2.2-9.6c0-3.5-0.7-6.8-2.2-9.6c-1.5-2.9-3.5-5.1-6.1-6.7c-2.6-1.6-5.5-2.4-8.8-2.4c-3.2,0-6.2,0.8-8.8,2.4
			c-2.6,1.6-4.6,3.8-6.1,6.7c-1.5,2.9-2.2,6.1-2.2,9.6c0,3.5,0.7,6.8,2.2,9.6c1.5,2.9,3.5,5.1,6.1,6.7c2.6,1.6,5.5,2.4,8.8,2.4
			C155.3,268,158.2,267.2,160.8,265.6z"/>
		<path class="st0" d="M197.1,273.1c-4-2.4-7.1-5.6-9.4-9.8c-2.3-4.2-3.4-8.9-3.4-14s1.1-9.8,3.4-14c2.3-4.2,5.4-7.4,9.4-9.8
			c4-2.4,8.4-3.5,13.4-3.5c5,0,9.4,1.2,13.4,3.5c4,2.4,7.1,5.6,9.4,9.8c2.3,4.2,3.4,8.8,3.4,14.1c0,5.2-1.1,9.9-3.4,14.1
			c-2.3,4.2-5.4,7.4-9.4,9.8c-4,2.4-8.4,3.5-13.4,3.5C205.5,276.7,201.1,275.5,197.1,273.1z M219.2,265.6c2.6-1.6,4.6-3.8,6.1-6.7
			c1.5-2.9,2.2-6.1,2.2-9.6c0-3.5-0.7-6.8-2.2-9.6c-1.5-2.9-3.5-5.1-6.1-6.7c-2.6-1.6-5.5-2.4-8.8-2.4c-3.2,0-6.2,0.8-8.8,2.4
			c-2.6,1.6-4.6,3.8-6.1,6.7c-1.5,2.9-2.2,6.1-2.2,9.6c0,3.5,0.7,6.8,2.2,9.6c1.5,2.9,3.5,5.1,6.1,6.7c2.6,1.6,5.5,2.4,8.8,2.4
			C213.7,268,216.7,267.2,219.2,265.6z"/>
	</g>
	<g>
		<path class="st0" d="M323.9,275.9l-0.1-35.3l-16,29.2h-4l-16-28.7v34.8h-8.6v-53.2h7.4L306,258l19-35.3h7.4l0.1,53.2H323.9z"/>
		<path class="st0" d="M354.9,273.1c-4-2.4-7.1-5.6-9.4-9.8c-2.3-4.2-3.4-8.9-3.4-14s1.1-9.8,3.4-14c2.3-4.2,5.4-7.4,9.4-9.8
			c4-2.4,8.4-3.5,13.4-3.5s9.4,1.2,13.4,3.5c4,2.4,7.1,5.6,9.4,9.8c2.3,4.2,3.4,8.8,3.4,14.1c0,5.2-1.1,9.9-3.4,14.1
			c-2.3,4.2-5.4,7.4-9.4,9.8c-4,2.4-8.5,3.5-13.4,3.5S358.9,275.5,354.9,273.1z M377.1,265.6c2.6-1.6,4.6-3.8,6.1-6.7
			c1.5-2.9,2.2-6.1,2.2-9.6c0-3.5-0.7-6.8-2.2-9.6c-1.5-2.9-3.5-5.1-6.1-6.7c-2.6-1.6-5.5-2.4-8.8-2.4c-3.2,0-6.2,0.8-8.8,2.4
			c-2.6,1.6-4.6,3.8-6.1,6.7c-1.5,2.9-2.2,6.1-2.2,9.6c0,3.5,0.7,6.8,2.2,9.6c1.5,2.9,3.5,5.1,6.1,6.7c2.6,1.6,5.5,2.4,8.8,2.4
			C371.6,268,374.5,267.2,377.1,265.6z"/>
		<path class="st0" d="M404.1,222.7h21.3c5.2,0,9.8,1.1,13.8,3.3c4,2.2,7.2,5.3,9.4,9.3c2.2,4,3.3,8.7,3.3,13.9
			c0,5.3-1.1,9.9-3.3,13.9c-2.2,4-5.3,7.1-9.4,9.3c-4,2.2-8.6,3.3-13.8,3.3h-21.3V222.7z M424.9,267.5c3.6,0,6.7-0.7,9.4-2.2
			c2.7-1.5,4.8-3.6,6.3-6.4c1.5-2.8,2.2-6,2.2-9.6c0-3.6-0.7-6.9-2.2-9.6c-1.5-2.8-3.5-4.9-6.3-6.4c-2.7-1.5-5.8-2.2-9.4-2.2h-11.8
			v36.5H424.9z"/>
	</g>
	<rect x="254.7" y="171.7" class="st0" width="8.5" height="156.6"/>
	<rect x="254.7" y="320.2" class="st0" width="216.1" height="8.2"/>
	
		<rect x="462.2" y="171.7" transform="matrix(-1 4.470989e-11 -4.470989e-11 -1 933.0024 500.0233)" class="st0" width="8.5" height="156.6"/>
	
		<rect x="254.7" y="171.6" transform="matrix(-1 4.488886e-11 -4.488886e-11 -1 725.4629 351.4946)" class="st0" width="216.1" height="8.2"/>
</g>
<g>
</g>
<g>
</g>
<g>
</g>
<g>
</g>
<g>
</g>
<g>
</g>
</svg>
