<?xml version="1.0" encoding="utf-8"?>
<!-- Generator: Adobe Illustrator 25.4.1, SVG Export Plug-In . SVG Version: 6.00 Build 0)  -->
<svg version="1.1" id="Layer_1" xmlns="http://www.w3.org/2000/svg" xmlns:xlink="http://www.w3.org/1999/xlink" x="0px" y="0px"
	 viewBox="0 0 500 500" style="enable-background:new 0 0 500 500;" xml:space="preserve">
<style type="text/css">
	.st0{fill:#00ABA8;}
</style>
<g>
	<g>
		<path class="st0" d="M76.6,263.1c1.6,2.3,2.4,5.1,2.4,8.4c0,4.6-1.6,8.2-4.9,10.7c-3.2,2.5-8,3.8-14.2,3.8H35.8v-53.2h22.8
			c5.7,0,10.2,1.2,13.3,3.7c3.1,2.5,4.7,5.8,4.7,10.1c0,2.6-0.6,5-1.7,7s-2.6,3.6-4.6,4.7C72.9,259.2,75,260.8,76.6,263.1z
			 M44.8,240.5v14.7h12.8c3.1,0,5.6-0.6,7.3-1.9c1.7-1.2,2.5-3.1,2.5-5.4c0-2.4-0.8-4.3-2.5-5.5c-1.7-1.2-4.1-1.9-7.3-1.9
			L44.8,240.5L44.8,240.5z M69.9,270.5c0-5.1-3.5-7.7-10.5-7.7H44.8v15.4h14.6C66.4,278.2,69.9,275.6,69.9,270.5z"/>
		<path class="st0" d="M88.6,232.7h9v44.8H123v8.4H88.6V232.7z"/>
		<path class="st0" d="M138.6,283.1c-4-2.4-7.1-5.6-9.4-9.8c-2.3-4.2-3.4-8.9-3.4-14s1.1-9.8,3.4-14s5.4-7.4,9.4-9.8
			c4-2.4,8.4-3.5,13.4-3.5s9.4,1.2,13.4,3.5c4,2.4,7.1,5.6,9.4,9.8c2.3,4.2,3.4,8.8,3.4,14.1c0,5.2-1.1,9.9-3.4,14.1
			c-2.3,4.2-5.4,7.4-9.4,9.8s-8.4,3.5-13.4,3.5C147.1,286.7,142.6,285.5,138.6,283.1z M160.8,275.6c2.6-1.6,4.6-3.8,6.1-6.7
			c1.5-2.9,2.2-6.1,2.2-9.6s-0.7-6.8-2.2-9.6c-1.5-2.9-3.5-5.1-6.1-6.7c-2.6-1.6-5.5-2.4-8.8-2.4c-3.2,0-6.2,0.8-8.8,2.4
			c-2.6,1.6-4.6,3.8-6.1,6.7s-2.2,6.1-2.2,9.6s0.7,6.8,2.2,9.6c1.5,2.9,3.5,5.1,6.1,6.7s5.5,2.4,8.8,2.4S158.2,277.2,160.8,275.6z"
			/>
		<path class="st0" d="M197.1,283.1c-4-2.4-7.1-5.6-9.4-9.8c-2.3-4.2-3.4-8.9-3.4-14s1.1-9.8,3.4-14c2.3-4.2,5.4-7.4,9.4-9.8
			c4-2.4,8.4-3.5,13.4-3.5s9.4,1.2,13.4,3.5c4,2.4,7.1,5.6,9.4,9.8c2.3,4.2,3.4,8.8,3.4,14.1c0,5.2-1.1,9.9-3.4,14.1
			c-2.3,4.2-5.4,7.4-9.4,9.8s-8.4,3.5-13.4,3.5C205.5,286.7,201.1,285.5,197.1,283.1z M219.2,275.6c2.6-1.6,4.6-3.8,6.1-6.7
			c1.5-2.9,2.2-6.1,2.2-9.6s-0.7-6.8-2.2-9.6c-1.5-2.9-3.5-5.1-6.1-6.7c-2.6-1.6-5.5-2.4-8.8-2.4c-3.2,0-6.2,0.8-8.8,2.4
			c-2.6,1.6-4.6,3.8-6.1,6.7s-2.2,6.1-2.2,9.6s0.7,6.8,2.2,9.6c1.5,2.9,3.5,5.1,6.1,6.7s5.5,2.4,8.8,2.4S216.7,277.2,219.2,275.6z"
			/>
	</g>
	<g>
		<path class="st0" d="M323.9,285.9l-0.1-35.3l-16,29.2h-4l-16-28.7v34.8h-8.6v-53.2h7.4L306,268l19-35.3h7.4l0.1,53.2H323.9z"/>
		<path class="st0" d="M354.9,283.1c-4-2.4-7.1-5.6-9.4-9.8c-2.3-4.2-3.4-8.9-3.4-14s1.1-9.8,3.4-14s5.4-7.4,9.4-9.8
			c4-2.4,8.4-3.5,13.4-3.5s9.4,1.2,13.4,3.5c4,2.4,7.1,5.6,9.4,9.8s3.4,8.8,3.4,14.1c0,5.2-1.1,9.9-3.4,14.1s-5.4,7.4-9.4,9.8
			s-8.5,3.5-13.4,3.5S358.9,285.5,354.9,283.1z M377.1,275.6c2.6-1.6,4.6-3.8,6.1-6.7c1.5-2.9,2.2-6.1,2.2-9.6s-0.7-6.8-2.2-9.6
			c-1.5-2.9-3.5-5.1-6.1-6.7c-2.6-1.6-5.5-2.4-8.8-2.4c-3.2,0-6.2,0.8-8.8,2.4c-2.6,1.6-4.6,3.8-6.1,6.7s-2.2,6.1-2.2,9.6
			s0.7,6.8,2.2,9.6c1.5,2.9,3.5,5.1,6.1,6.7s5.5,2.4,8.8,2.4S374.5,277.2,377.1,275.6z"/>
		<path class="st0" d="M404.1,232.7h21.3c5.2,0,9.8,1.1,13.8,3.3s7.2,5.3,9.4,9.3c2.2,4,3.3,8.7,3.3,13.9c0,5.3-1.1,9.9-3.3,13.9
			c-2.2,4-5.3,7.1-9.4,9.3c-4,2.2-8.6,3.3-13.8,3.3h-21.3V232.7z M424.9,277.5c3.6,0,6.7-0.7,9.4-2.2c2.7-1.5,4.8-3.6,6.3-6.4
			s2.2-6,2.2-9.6s-0.7-6.9-2.2-9.6c-1.5-2.8-3.5-4.9-6.3-6.4c-2.7-1.5-5.8-2.2-9.4-2.2h-11.8v36.5L424.9,277.5L424.9,277.5z"/>
	</g>
	<rect x="254.7" y="181.7" class="st0" width="8.5" height="156.6"/>
	<rect x="254.7" y="330.2" class="st0" width="216.1" height="8.2"/>
	<rect x="462.3" y="181.7" class="st0" width="8.5" height="156.6"/>
	<rect x="254.7" y="181.7" class="st0" width="216.1" height="8.2"/>
</g>
</svg>
