<?xml version="1.0" encoding="utf-8"?>
<!-- Generator: Adobe Illustrator 25.4.1, SVG Export Plug-In . SVG Version: 6.00 Build 0)  -->
<svg version="1.1" id="Layer_1" xmlns="http://www.w3.org/2000/svg" xmlns:xlink="http://www.w3.org/1999/xlink" x="0px" y="0px"
	 viewBox="0 0 512 512" style="enable-background:new 0 0 512 512;" xml:space="preserve">
<path d="M63.4,212.8c6.3-5.4,7.1-14.8,1.7-21.1c-30.4-35.8-21.1-90.2,19-114c40.1-23.7,92.2-5.8,109,38.1c3,7.7,11.6,11.6,19.4,8.7
	c7.7-3,11.6-11.6,8.7-19.4C197.8,44,125,18.7,68.9,51.9C12.8,85-0.3,161.1,42.2,211.1C47.6,217.4,57.1,218.2,63.4,212.8z"/>
<path d="M328.7,177.8c-20.9-13.3-48.4-7.2-61.8,13.3c-19-12.1-43.9-8.3-58.5,8.8l-46.7-79.1c-12.5-21.1-39.8-28.7-61-16.9
	c-22.2,12.3-29.9,40.4-17,62.3l117.6,198.9l-24.6-6.9c-23.6-6.6-48.6,6.7-55.8,29.7c-7.6,24.3,6.4,49.8,30.7,56.7l142.1,41.5
	c19.8,5.8,41.4,3.1,59.2-7.4l105.1-62.2c35.6-21,47.4-67.1,26.4-102.7l-79.4-134.3C388.2,150.9,346.9,149.9,328.7,177.8z
	 M458.7,329.1c12.6,21.4,5.5,49-15.8,61.6l-105.1,62.2c-10.7,6.3-23.6,7.9-35.5,4.5c-0.5-0.1-141.8-41.4-142.3-41.5
	c-8.1-2.3-12.8-10.8-10.2-18.9c2.4-7.7,10.9-12.1,19-9.8l60.6,17.1c13,3.7,23.8-10.4,17-22.1L109.5,151c-4.3-7.3-1.7-16.7,5.7-20.8
	c7.1-3.9,16.3-1.3,20.6,6c84,142.1,45.7,77.8,91,154.6c4.2,7.2,13.5,9.5,20.7,5.2c7.2-4.2,9.6-13.5,5.4-20.6l-24.4-41.2
	c-2.4-6.6,0.2-14.2,6.5-17.9c7.1-4.2,16.3-1.8,20.5,5.3l22.9,38.7c4.2,7.1,13.4,9.5,20.5,5.3c7.1-4.2,9.5-13.4,5.3-20.5l-12.7-21.5
	c-4.2-7.1-1.8-16.3,5.3-20.5c7.1-4.2,16.3-1.8,20.5,5.3l12.7,21.5c4.2,7.1,13.4,9.5,20.5,5.3s9.5-13.4,5.3-20.5l-2.5-4.3
	c-4.2-7.1-1.8-16.3,5.3-20.5c7.1-4.2,16.3-1.8,20.5,5.3L458.7,329.1z"/>
</svg>
