<?xml version="1.0" encoding="utf-8"?>
<!-- Generator: Adobe Illustrator 25.4.1, SVG Export Plug-In . SVG Version: 6.00 Build 0)  -->
<svg version="1.1" id="Layer_1" xmlns="http://www.w3.org/2000/svg" xmlns:xlink="http://www.w3.org/1999/xlink" x="0px" y="0px"
	 viewBox="0 0 512 512" style="enable-background:new 0 0 512 512;" xml:space="preserve">
<path d="M52.3,199.5c6.7-5.7,7.4-15.9,1.6-22.7c-32.7-38.7-23.3-97,19.2-122.2c42.4-25,98-5.3,116.2,41.9
	c3.2,8.3,12.5,12.6,20.7,9.5c8.2-3.1,12.2-12.4,9-20.7C193.6,19.6,116-8.3,56.6,26.8C-2.7,61.9-15.9,143.4,29.8,197.5
	C35.6,204.3,45.7,205.2,52.3,199.5z"/>
<path d="M333,166.4c-22.3-14.4-51.6-8.2-65.6,13.7c-20.3-13.1-46.8-9.3-62.1,8.9l-50.4-85.3C141.5,81,112.3,72.6,89.9,85
	c-23.5,13-31.4,43.1-17.5,66.7l126.8,214.6l-26.2-7.7c-25.1-7.3-51.6,6.7-59,31.4c-7.8,26,7.3,53.5,33.1,61.1l151.5,45.8
	c21.1,6.4,44,3.7,62.8-7.4l111.2-65.7c37.6-22.3,49.8-71.6,27.1-110l-85.6-144.8C396,138.1,352.1,136.6,333,166.4z M472.5,329.9
	c13.6,23,6.3,52.6-16.3,66l-111.2,65.7c-11.3,6.7-25,8.3-37.7,4.5c-0.5-0.2-151.2-45.7-151.7-45.9c-8.6-2.5-13.7-11.7-11.1-20.4
	c2.5-8.2,11.5-12.8,20.1-10.3l64.6,18.9c13.8,4.1,25.3-11,17.8-23.5L99.7,135.5c-4.6-7.8-2-17.9,5.9-22.3c7.5-4.2,17.3-1.2,21.9,6.6
	c90.6,153.3,49.3,83.9,98.2,166.7c4.6,7.7,14.4,10.4,22,5.8c7.7-4.4,10.1-14.4,5.6-22.1l-26.3-44.4c-2.6-7.1,0.1-15.3,6.7-19.2
	c7.5-4.5,17.3-1.8,21.9,5.9l24.7,41.8c4.5,7.7,14.3,10.3,21.9,5.9s10-14.3,5.4-22L294,214.9c-4.5-7.7-2.1-17.5,5.4-22
	c7.5-4.5,17.3-1.8,21.9,5.9L335,222c4.5,7.7,14.3,10.3,21.9,5.9s10-14.3,5.4-22l-2.7-4.6c-4.5-7.7-2.1-17.5,5.4-22
	s17.3-1.8,21.9,5.9L472.5,329.9z"/>
</svg>
