<?xml version="1.0" encoding="utf-8"?>
<!-- Generator: Adobe Illustrator 25.4.1, SVG Export Plug-In . SVG Version: 6.00 Build 0)  -->
<svg version="1.1" id="Capa_1" xmlns="http://www.w3.org/2000/svg" xmlns:xlink="http://www.w3.org/1999/xlink" x="0px" y="0px"
	 viewBox="0 0 512 512" style="enable-background:new 0 0 512 512;" xml:space="preserve">
<style type="text/css">
	.st0{fill:#383838;}
</style>
<g>
	<path class="st0" d="M503.7,420.1L418.5,335l41.8-41.8c3.6-3.6,5.1-8.9,3.9-13.8s-4.8-9-9.7-10.6l-250.6-83.5
		c-5.3-1.8-11.2-0.4-15.1,3.6c-4,4-5.3,9.8-3.6,15.1l83.5,250.6c1.6,4.9,5.6,8.5,10.6,9.7s10.2-0.3,13.8-3.9l41.8-41.8l85.2,85.2
		c2.9,2.9,6.7,4.3,10.4,4.3c3.8,0,7.6-1.4,10.4-4.3l62.6-62.6C509.4,435.3,509.4,425.9,503.7,420.1z M430.6,472.4l-85.2-85.2
		c-5.8-5.8-15.1-5.8-20.9,0l-35.3,35.3l-66.6-199.9l199.9,66.6l-35.3,35.3c-5.8,5.8-5.8,15.1,0,20.9l85.2,85.2L430.6,472.4z"/>
	<path class="st0" d="M196,122.1c8.2,0,14.8-6.6,14.8-14.8V18.8c0-8.2-6.6-14.8-14.8-14.8s-14.8,6.6-14.8,14.8v88.6
		C181.2,115.5,187.8,122.1,196,122.1z"/>
	<path class="st0" d="M81.1,60.2c-5.8-5.8-15.1-5.8-20.9,0s-5.8,15.1,0,20.9l62.6,62.6c5.8,5.8,15.1,5.8,20.9,0s5.8-15.1,0-20.9
		L81.1,60.2z"/>
	<path class="st0" d="M122.9,248.2l-62.6,62.6c-5.8,5.8-5.8,15.1,0,20.9s15.1,5.8,20.9,0l62.6-62.6c5.8-5.8,5.8-15.1,0-20.9
		S128.6,242.4,122.9,248.2z"/>
	<path class="st0" d="M269,143.7l62.6-62.6c5.8-5.8,5.8-15.1,0-20.9s-15.1-5.8-20.9,0l-62.6,62.6c-5.8,5.8-5.8,15.1,0,20.9
		C253.9,149.5,263.3,149.5,269,143.7z"/>
	<path class="st0" d="M122.1,196c0-8.2-6.6-14.8-14.8-14.8H18.8C10.6,181.2,4,187.8,4,196s6.6,14.8,14.8,14.8h88.6
		C115.5,210.7,122.1,204.1,122.1,196z"/>
</g>
</svg>
