<?xml version="1.0" encoding="utf-8"?>
<!-- Generator: Adobe Illustrator 25.4.1, SVG Export Plug-In . SVG Version: 6.00 Build 0)  -->
<svg version="1.1" xmlns="http://www.w3.org/2000/svg" xmlns:xlink="http://www.w3.org/1999/xlink" x="0px" y="0px"
	 viewBox="0 0 635 635" style="enable-background:new 0 0 635 635;" xml:space="preserve">
<style type="text/css">
	.st0{fill:#00A9E0;}
	.st1{fill:#33BAE6;}
	.st2{fill:#FBFBFB;}
</style>
<g id="Layer_2">
	<rect class="st0" width="635" height="635"/>
</g>
<g id="Capa_1">
	<g>
		<g>
			<path class="st1" d="M454.6,187.1l-134.2-40.3c-1.9-0.6-3.9-0.6-5.8,0l-134.2,40.3c-4.2,1.3-7.1,5.2-7.1,9.6v147.6
				c0,19.2,7.8,38.8,23.1,58.4c11.7,14.9,27.9,29.9,48.1,44.6c34,24.6,67.5,39.7,68.9,40.3c1.3,0.6,2.7,0.9,4.1,0.9
				c1.4,0,2.8-0.3,4.1-0.9c1.4-0.6,34.9-15.7,68.9-40.3c20.2-14.6,36.4-29.6,48.1-44.6c15.3-19.6,23.1-39.2,23.1-58.4V196.7
				C461.7,192.3,458.8,188.4,454.6,187.1z M441.6,344.3c0,34-34.1,65.8-62.7,86.6c-25.6,18.6-51.6,31.8-61.5,36.5
				c-9.8-4.7-35.8-17.9-61.5-36.5c-28.6-20.7-62.7-52.6-62.7-86.6V204.2L317.5,167l124.1,37.2V344.3z"/>
		</g>
	</g>
</g>
<g id="Layer_3">
	<g>
		<path class="st2" d="M183.8,345.6l-11-35.2c-0.7-2.2-2-7-3.9-14.7h-0.4c-1.5,6.4-2.7,11.3-3.8,14.8l-11.3,35.1h-10.5l-16.4-59.9
			h9.5c3.9,15.1,6.8,26.5,8.8,34.4s3.2,13.2,3.5,15.9h0.4c0.4-2.1,1-4.8,1.9-8.1c0.9-3.3,1.7-5.9,2.3-7.8l11-34.4h9.8l10.7,34.4
			c2,6.3,3.4,11.5,4.2,15.8h0.4c0.1-1.3,0.5-3.3,1.2-6.1c0.6-2.7,4.4-17.4,11.4-44.1h9.4l-16.6,59.9H183.8z"/>
		<path class="st2" d="M258.8,345.6l-1.8-8.5h-0.4c-3,3.8-6,6.3-8.9,7.6c-3,1.3-6.7,2-11.1,2c-5.9,0-10.6-1.5-14-4.6
			c-3.4-3.1-5.1-7.4-5.1-13.1c0-12.1,9.7-18.4,29-19l10.2-0.3v-3.7c0-4.7-1-8.2-3-10.4c-2-2.2-5.3-3.4-9.7-3.4c-5,0-10.6,1.5-17,4.6
			l-2.8-6.9c3-1.6,6.2-2.9,9.7-3.8c3.5-0.9,7-1.4,10.6-1.4c7.1,0,12.4,1.6,15.9,4.8s5.2,8.3,5.2,15.3v40.9H258.8z M238.3,339.2
			c5.7,0,10.1-1.5,13.3-4.6c3.2-3.1,4.8-7.4,4.8-13v-5.4l-9.1,0.4c-7.2,0.3-12.4,1.4-15.6,3.4c-3.2,2-4.8,5.1-4.8,9.3
			c0,3.3,1,5.8,3,7.5C232,338.3,234.7,339.2,238.3,339.2z"/>
		<path class="st2" d="M311.6,284.6c2.7,0,5,0.2,7.2,0.7l-1.3,8.4c-2.5-0.5-4.7-0.8-6.6-0.8c-4.8,0-9,2-12.4,5.9s-5.2,8.8-5.2,14.7
			v32.2h-9.1v-59.9h7.5l1,11.1h0.4c2.2-3.9,4.9-6.9,8-9C304.4,285.6,307.8,284.6,311.6,284.6z"/>
		<path class="st2" d="M370.8,337.6h-0.5c-4.2,6.1-10.5,9.1-18.8,9.1c-7.8,0-13.9-2.7-18.3-8c-4.4-5.4-6.5-13-6.5-22.9
			c0-9.9,2.2-17.6,6.6-23s10.5-8.2,18.3-8.2c8.1,0,14.4,3,18.7,8.9h0.7l-0.4-4.3l-0.2-4.2v-24.4h9.1v85.1H372L370.8,337.6z
			 M352.6,339.1c6.2,0,10.7-1.7,13.5-5.1c2.8-3.4,4.2-8.8,4.2-16.3v-1.9c0-8.5-1.4-14.6-4.2-18.2c-2.8-3.6-7.3-5.4-13.5-5.4
			c-5.3,0-9.4,2.1-12.2,6.2c-2.8,4.1-4.2,10-4.2,17.5c0,7.7,1.4,13.4,4.2,17.3C343.1,337.1,347.2,339.1,352.6,339.1z"/>
		<path class="st2" d="M423.9,346.7c-8.9,0-15.9-2.7-21-8.1c-5.1-5.4-7.7-12.9-7.7-22.5c0-9.7,2.4-17.3,7.1-23s11.1-8.5,19.2-8.5
			c7.5,0,13.5,2.5,17.8,7.4c4.4,4.9,6.6,11.5,6.6,19.6v5.7h-41.3c0.2,7,2,12.4,5.3,16c3.4,3.6,8.1,5.5,14.2,5.5
			c6.5,0,12.8-1.3,19.1-4v8.1c-3.2,1.4-6.2,2.4-9.1,3C431.4,346.4,428,346.7,423.9,346.7z M421.5,292.2c-4.8,0-8.7,1.6-11.5,4.7
			c-2.9,3.1-4.5,7.5-5.1,13h31.3c0-5.7-1.3-10.1-3.8-13.2C429.8,293.7,426.2,292.2,421.5,292.2z"/>
		<path class="st2" d="M502.5,345.6v-38.8c0-4.9-1.1-8.5-3.3-10.9c-2.2-2.4-5.7-3.6-10.4-3.6c-6.3,0-10.9,1.7-13.8,5.1
			c-2.9,3.4-4.4,9-4.4,16.8v31.4h-9.1v-59.9h7.4l1.5,8.2h0.4c1.9-3,4.5-5.2,7.8-6.9c3.4-1.6,7.1-2.4,11.2-2.4
			c7.2,0,12.7,1.7,16.3,5.2c3.6,3.5,5.5,9.1,5.5,16.7v39.1H502.5z"/>
	</g>
</g>
</svg>
